<svg width="52" height="64" viewBox="0 0 52 64" fill="none" xmlns="http://www.w3.org/2000/svg">
<path fill-rule="evenodd" clip-rule="evenodd" d="M37.7885 0.423417C35.1199 0.680592 31.987 2.22626 29.7889 4.37014C27.4373 6.66368 25.8482 9.85194 25.5696 12.8354C25.5269 13.2936 25.5465 14.3838 25.6031 14.6884L25.6413 14.8942L25.9061 14.9318C26.2926 14.9867 27.2438 14.9537 27.7324 14.8685C29.5969 14.5434 31.5387 13.6257 33.2742 12.2495C33.7989 11.8334 34.7691 10.8514 35.2468 10.253C35.9421 9.38195 36.5324 8.45112 37.009 7.47439C37.7031 6.05184 38.1144 4.7061 38.3392 3.12125C38.4042 2.66321 38.4342 1.23603 38.3865 0.867499C38.3207 0.358645 38.3332 0.388376 38.1873 0.393131C38.117 0.395415 37.9376 0.409061 37.7885 0.423417ZM36.5931 15.6927C35.8745 15.7351 34.9 15.8921 34.046 16.1032C32.9218 16.381 32.0781 16.6677 30.0942 17.4463C28.4846 18.0779 27.9854 18.2539 27.3379 18.4178C26.5164 18.6258 25.7958 18.6206 24.9075 18.4003C24.2785 18.2444 23.8189 18.0809 22.1658 17.4255C20.5751 16.7947 19.995 16.5847 19.2423 16.367C17.4092 15.8369 15.9465 15.7189 14.1019 15.9525C12.1129 16.2043 10.1885 16.8635 8.45204 17.8877C5.07613 19.8789 2.55406 23.0948 1.1961 27.1398C0.19312 30.1275 -0.158033 33.5143 0.14928 37.2362C0.43069 40.6442 1.26381 44.2616 2.55613 47.6869C3.38567 49.8854 4.50751 52.2016 5.6217 54.0159C6.64036 55.6746 8.6935 58.4595 9.96906 59.9127C12.3417 62.6157 14.5423 63.7669 17.001 63.5914C18.2956 63.499 19.1165 63.2683 21.1093 62.4368C22.3949 61.9003 22.9318 61.6997 23.5968 61.5075C25.6073 60.926 27.879 60.8749 29.8472 61.3668C30.6709 61.5727 31.1451 61.7442 32.5486 62.3437C34.2896 63.0875 34.9565 63.2976 36.0528 63.4482C36.5395 63.515 37.5832 63.541 37.9978 63.4966C39.9137 63.2913 41.662 62.3401 43.4014 60.5566C44.4628 59.4682 45.5366 58.0999 47.0806 55.8683C48.7827 53.4081 50.2985 50.4048 51.2409 47.6251C51.5273 46.7804 51.5291 46.7723 51.4372 46.7439C51.1265 46.6478 49.9373 45.9952 49.3129 45.578C45.7449 43.1946 43.5907 39.7585 43.1252 35.708C42.7379 32.339 43.481 29.1346 45.2838 26.3997C46.3288 24.8144 47.8389 23.3027 49.4595 22.2195C49.6675 22.0805 49.8377 21.9518 49.8377 21.9335C49.8377 21.8812 49.4139 21.314 49.046 20.8739C46.4443 17.7616 42.7672 15.9733 38.4146 15.7031C37.9459 15.6741 37.0008 15.6686 36.5931 15.6927Z" fill="#2A5B2B"/>
</svg>
