<?xml version="1.0" encoding="utf-8"?>
<!-- Generator: Adobe Illustrator 28.0.0, SVG Export Plug-In . SVG Version: 6.00 Build 0)  -->
<svg version="1.1" id="Layer_1" xmlns="http://www.w3.org/2000/svg" xmlns:xlink="http://www.w3.org/1999/xlink" x="0px" y="0px"
	 viewBox="0 0 360 360" style="enable-background:new 0 0 360 360;" xml:space="preserve">
<style type="text/css">
	.st0{fill-rule:evenodd;clip-rule:evenodd;fill:#2A5B2B;}
</style>
<path class="st0" d="M247.8,1.8c-15.1,1.5-32.7,10.2-45.1,22.3c-13.3,12.9-22.2,30.9-23.8,47.8c-0.2,2.6-0.1,8.7,0.2,10.5l0.2,1.2
	l1.5,0.2c2.2,0.3,7.5,0.1,10.3-0.4c10.5-1.8,21.5-7,31.3-14.8c3-2.3,8.4-7.9,11.1-11.3c3.9-4.9,7.3-10.2,9.9-15.7
	c3.9-8,6.2-15.6,7.5-24.6c0.4-2.6,0.5-10.6,0.3-12.7c-0.4-2.9-0.3-2.7-1.1-2.7C249.7,1.7,248.7,1.8,247.8,1.8z M241.1,88
	c-4.1,0.2-9.6,1.1-14.4,2.3c-6.3,1.6-11.1,3.2-22.3,7.6c-9.1,3.6-11.9,4.6-15.6,5.5c-4.6,1.2-8.7,1.1-13.7-0.1
	c-3.5-0.9-6.1-1.8-15.5-5.5c-9-3.6-12.2-4.7-16.5-6c-10.3-3-18.6-3.7-29-2.3c-11.2,1.4-22.1,5.1-31.9,10.9
	c-19,11.2-33.3,29.4-40.9,52.2c-5.7,16.9-7.6,36-5.9,57c1.6,19.2,6.3,39.6,13.6,59c4.7,12.4,11,25.5,17.3,35.7
	c5.7,9.4,17.3,25.1,24.5,33.3c13.4,15.2,25.8,21.7,39.7,20.8c7.3-0.5,11.9-1.8,23.2-6.5c7.3-3,10.3-4.2,14-5.2
	c11.3-3.3,24.2-3.6,35.3-0.8c4.6,1.2,7.3,2.1,15.2,5.5c9.8,4.2,13.6,5.4,19.8,6.2c2.7,0.4,8.6,0.5,11,0.3
	c10.8-1.2,20.7-6.5,30.5-16.6c6-6.1,12-13.9,20.8-26.5c9.6-13.9,18.2-30.8,23.5-46.5c1.6-4.8,1.6-4.8,1.1-5c-1.8-0.5-8.5-4.2-12-6.6
	c-20.1-13.4-32.3-32.8-34.9-55.7c-2.2-19,2-37.1,12.2-52.5c5.9-8.9,14.4-17.5,23.6-23.6c1.2-0.8,2.1-1.5,2.1-1.6
	c0-0.3-2.4-3.5-4.5-6c-14.7-17.6-35.4-27.6-60-29.2C248.7,87.9,243.4,87.9,241.1,88z"/>
</svg>
