<svg width="289" height="46" viewBox="0 0 289 46" fill="none" xmlns="http://www.w3.org/2000/svg">
<path fill-rule="evenodd" clip-rule="evenodd" d="M235.002 15.9282V0.205427L235.005 0.201893C235.496 0.0428989 241.973 -0.00656608 242.941 0.127696C243.075 0.608212 243.1 44.6744 242.955 45.3351H235.03C235.017 44.8247 235.018 44.3181 235.02 43.7977C235.021 43.3095 235.022 42.8092 235.012 42.2824C234.977 42.3167 234.944 42.3474 234.914 42.3756L234.847 42.4376C234.766 42.5129 234.704 42.5697 234.648 42.6322C232.804 44.7203 230.479 45.8121 227.702 45.9322C225.017 46.0488 222.438 45.6001 220.042 44.3352C217.173 42.823 215.283 40.4558 214.092 37.4843C213.17 35.1842 212.781 32.7781 212.7 30.319C212.605 27.4465 212.898 24.6164 213.848 21.8817C214.813 19.1187 216.35 16.762 218.77 15.0449C220.462 13.8401 222.349 13.1052 224.398 12.8155C225.331 12.6847 226.278 12.5681 227.218 12.5823C230.101 12.6317 232.638 13.5822 234.701 15.6491C234.751 15.7016 234.805 15.7502 234.894 15.8311L234.895 15.8315C234.926 15.8594 234.961 15.8911 235.002 15.9282ZM231.165 38.4277C232.945 37.6398 234.108 36.2406 234.867 34.4882L234.864 34.4917C235.595 32.8099 235.825 31.0327 235.86 28.7962C235.848 28.6691 235.836 28.5123 235.823 28.3341V28.3338L235.823 28.3323V28.332L235.823 28.3305C235.786 27.8352 235.737 27.175 235.631 26.5243C235.32 24.6305 234.655 22.8851 233.313 21.4506C231.044 19.0304 227.335 18.6523 224.642 20.592C223.25 21.5955 222.37 22.9734 221.833 24.5775C221.003 27.0543 220.939 29.5876 221.399 32.1386C221.664 33.6119 222.187 34.9863 223.081 36.2053C224.978 38.7881 228.267 39.7067 231.165 38.4277ZM62.9696 34.9725C64.8528 27.7259 66.736 20.4757 68.6263 13.1973V13.1938L70.605 13.1383C72.4624 13.0861 74.3198 13.034 76.2368 12.9818L75.6726 14.7513L75.6681 14.7653C72.4292 24.9224 69.2083 35.0229 65.9905 45.1234H58.9877C57.1716 38.3326 55.3556 31.5524 53.5395 24.7721C53.4971 24.7757 53.4512 24.7792 53.4053 24.7792L52.1177 29.6334L52.1116 29.6564L52.1108 29.6593L52.1089 29.6668C50.7248 34.8848 49.3402 40.1047 47.9535 45.3389H40.9577L40.0595 42.5211L40.0388 42.4562L40.0169 42.3876L40.0104 42.3673C36.9195 32.6712 33.8248 22.9635 30.7185 13.215H38.7354C40.6135 20.4491 42.4916 27.6797 44.3697 34.9103L44.3728 34.9221L44.3819 34.9572L44.385 34.969C44.4003 34.9701 44.4156 34.9717 44.4309 34.9733C44.4615 34.9764 44.4921 34.9796 44.5228 34.9796C45.4078 31.4426 46.2938 27.9049 47.1806 24.3638L47.2115 24.2401L47.2292 24.1696L47.2393 24.1294C48.1489 20.4969 49.0595 16.8608 49.971 13.2185H57.3836C58.1916 16.4471 58.9995 19.6728 59.8071 22.8973L59.808 22.901L59.8341 23.0053L59.8361 23.0129C60.8341 26.998 61.8318 30.9812 62.8283 34.9654C62.8743 34.969 62.9237 34.9725 62.9696 34.9725ZM105.581 16.7188L105.575 16.7435C105.265 17.9452 104.956 19.1453 104.647 20.3445C104.443 21.1432 104.239 21.9419 104.036 22.7405L104.036 22.7414L104.035 22.7423L104.035 22.7432L104.035 22.7441L104.035 22.745L104.035 22.7459C103.614 24.3972 103.194 26.0479 102.761 27.6971C102.62 28.233 102.482 28.7698 102.344 29.3067L102.343 29.3079L102.343 29.308L102.343 29.3081C101.855 31.2061 101.366 33.1058 100.747 34.9755C99.8386 31.3146 98.9305 27.6528 98.0223 23.991C97.1144 20.3302 96.2065 16.6694 95.2986 13.0095H87.8894C86.1299 20.3692 84.3809 27.6935 82.632 35.0214C82.5861 35.025 82.5437 35.0285 82.4977 35.0356C81.7758 32.9763 81.0547 30.9162 80.3336 28.8561L80.3246 28.8303L80.3107 28.7906L80.2968 28.7509C79.5727 26.6822 78.8486 24.6135 78.1236 22.5457H77.9894C77.9231 22.7125 77.853 22.8783 77.7829 23.0441C77.6288 23.4086 77.4746 23.7733 77.3605 24.1497C76.9599 25.4882 76.5672 26.8296 76.1746 28.1709L76.1737 28.1738C75.8256 29.3631 75.4775 30.5523 75.1239 31.7391C75.0215 32.0853 75.025 32.3927 75.1345 32.739C76.0659 35.6966 76.9916 38.658 77.9172 41.6191C78.2521 42.6905 78.587 43.762 78.9221 44.8331C78.9638 44.9632 79.0188 45.0894 79.0703 45.2076C79.0888 45.2499 79.1068 45.2912 79.1235 45.3313H86.0804C87.4709 40.0923 88.8552 34.8696 90.238 29.6525L90.2422 29.6365L90.2637 29.5553L90.2818 29.4871L91.5392 24.7433C91.5657 24.7433 91.5938 24.7466 91.6213 24.7498L91.6214 24.7498C91.6342 24.7513 91.647 24.7528 91.6594 24.7539C92.6661 28.5541 93.6739 32.3531 94.6816 36.1517L94.6853 36.1658L94.6913 36.1882L94.7105 36.2606L94.7267 36.3219C95.5253 39.3323 96.3239 42.3424 97.1217 45.3525H104.255C104.686 44.4233 114.445 13.4582 114.456 12.9919H106.552H106.541C106.225 14.221 105.909 15.4476 105.593 16.6723L105.581 16.7188ZM143.088 19.889L143.095 19.8646C143.302 19.051 143.509 18.238 143.718 17.4261V17.4367C143.905 16.7127 144.093 15.9897 144.282 15.265C144.478 14.5147 144.674 13.7626 144.869 13.006H152.851C152.828 13.0915 152.808 13.1737 152.788 13.2533L152.788 13.2537L152.788 13.2543L152.788 13.2545C152.749 13.4081 152.714 13.5521 152.667 13.6915C151.639 16.8728 150.611 20.055 149.582 23.2371L149.563 23.2986C148.527 26.5034 147.491 29.7082 146.456 32.9121C145.841 34.8098 145.227 36.7082 144.613 38.6067L144.602 38.6395L144.59 38.6785L144.571 38.7359L144.544 38.8179C143.908 40.7868 143.271 42.7556 142.633 44.7236C142.61 44.7946 142.59 44.858 142.573 44.9146C142.499 45.1501 142.462 45.2686 142.382 45.3278C142.3 45.3877 142.174 45.3868 141.92 45.385C141.873 45.3847 141.821 45.3843 141.764 45.3843H135.959C135.864 45.3843 135.767 45.3785 135.651 45.3716C135.586 45.3677 135.516 45.3634 135.436 45.3596C133.616 38.4911 131.797 31.6225 129.973 24.7539L129.857 24.7469C128.731 28.9868 127.607 33.2267 126.481 37.4741L126.472 37.5059C125.781 40.1145 125.088 42.7259 124.395 45.3419H117.399L117.247 44.8857C116.941 43.9707 116.639 43.0646 116.342 42.1585C116.046 41.2572 115.75 40.3555 115.454 39.4538L115.451 39.4432L115.447 39.4326L115.446 39.4292L115.445 39.4266L115.445 39.4257L115.445 39.4248L115.445 39.4238L115.444 39.4229C114.721 37.2174 113.997 35.0118 113.265 32.8097C113.138 32.4245 113.131 32.0818 113.258 31.6932C113.664 30.4389 114.064 29.1819 114.464 27.925L114.465 27.9247L114.465 27.9243L114.465 27.924L114.465 27.9237L114.465 27.9234L114.465 27.923C114.865 26.6667 115.265 25.4105 115.671 24.1568C115.848 23.6092 116.095 23.0863 116.441 22.5457L120.819 35.0426L120.829 35.0419L120.857 35.0398L120.887 35.0377C120.908 35.0364 120.929 35.0356 120.95 35.0356C121.966 30.7756 122.984 26.5157 124.003 22.2537L124.014 22.2053L124.024 22.1665L124.044 22.0804L124.079 21.9372C124.79 18.959 125.502 15.9799 126.214 12.9989H133.616L139.064 34.9614C139.504 33.8432 139.798 32.6895 140.091 31.5373C140.167 31.2368 140.243 30.9364 140.322 30.6367C140.576 29.6752 140.824 28.7121 141.071 27.7495L141.072 27.7437L141.078 27.7242C141.207 27.2203 141.337 26.7165 141.467 26.2132C141.842 24.761 142.216 23.3089 142.587 21.8532C142.755 21.1984 142.922 20.5436 143.088 19.889ZM26.6518 21.0267C25.6024 17.1684 23.214 14.568 19.3769 13.3561C18.0837 12.9462 16.7517 12.7554 15.3985 12.6424C13.1867 12.4551 11.0209 12.6176 8.91506 13.3313C5.38538 14.5291 2.89447 16.808 1.71084 20.4013C1.62863 20.6526 1.56984 20.9118 1.51164 21.1683C1.48229 21.2977 1.4531 21.4264 1.42112 21.5531C2.44575 21.9064 7.54417 22.9735 8.01056 22.9346C8.04279 22.8651 8.07474 22.7947 8.1069 22.7239L8.10694 22.7238L8.10698 22.7237L8.10702 22.7236L8.10706 22.7235C8.18763 22.5461 8.26948 22.3658 8.36034 22.1891C8.98572 20.9984 9.90789 20.1292 11.2046 19.7229C13.0736 19.1364 14.9392 19.2177 16.7553 19.9243C17.9954 20.4083 18.8151 21.3411 19.0518 22.6625C19.1592 23.2703 19.1941 23.8915 19.2287 24.5075V24.5075C19.2442 24.7833 19.2596 25.0581 19.2815 25.3301C19.2126 25.3625 19.1655 25.387 19.1313 25.4048L19.1312 25.4048C19.0797 25.4317 19.0576 25.4432 19.0342 25.4432C18.7974 25.4538 18.5607 25.4573 18.324 25.4608C17.6106 25.473 16.8969 25.4674 16.1833 25.4619C14.4054 25.4481 12.6283 25.4343 10.8583 25.694C8.73487 26.005 6.7174 26.6197 4.88367 27.7574C2.78141 29.0612 1.26566 30.8349 0.551951 33.2374C0.0785009 34.8344 0.0431688 36.4491 0.354091 38.0779C1.04307 41.7101 3.09233 44.1586 6.65027 45.2786C8.44514 45.8439 10.2824 45.8934 12.1303 45.6249C15.13 45.1903 17.5891 43.777 19.5359 41.4663C19.5904 41.4019 19.624 41.3184 19.6575 41.2353L19.6575 41.2353L19.6575 41.2352C19.6718 41.1998 19.6861 41.1644 19.702 41.1306C19.7585 41.166 19.8185 41.2013 19.8751 41.2331C20.1401 42.5262 20.4051 43.8159 20.67 45.1055H27.2242C27.2279 45.0434 27.2319 44.9843 27.2358 44.9274V44.9274V44.9273C27.2464 44.7706 27.256 44.6307 27.256 44.4907C27.256 42.4425 27.2563 40.3947 27.2567 38.347C27.2575 34.252 27.2583 30.1575 27.256 26.0615C27.256 24.362 27.1005 22.6731 26.6518 21.0231V21.0267ZM17.7163 36.488C16.5503 37.8059 15.0522 38.5408 13.3351 38.8517C12.5295 38.9966 11.7204 39.0778 10.9149 38.8446C9.45211 38.4207 8.53701 37.1275 8.61474 35.6012C8.71013 33.7392 9.84783 32.4107 11.7275 32.022C12.2469 31.9125 12.7875 31.8665 13.321 31.863C14.5221 31.8512 15.7233 31.8552 16.9244 31.8591H16.9248C17.5255 31.8611 18.1261 31.863 18.7268 31.863C18.8236 31.863 18.9204 31.8725 19.0278 31.883C19.0811 31.8882 19.1369 31.8937 19.1967 31.8983C19.331 33.6579 18.8681 35.1878 17.7198 36.4915L17.7163 36.488ZM174.644 13.6175C178.145 14.9566 180.247 17.5323 181.194 21.1079L181.198 21.1043C181.608 22.6484 181.77 24.2277 181.77 25.8212V44.5083C181.77 44.6463 181.761 44.7863 181.75 44.9423L181.745 45.0201L181.741 45.077L181.738 45.116H175.199C174.93 43.7982 174.665 42.505 174.382 41.127C174.359 41.1517 174.338 41.1745 174.317 41.1958C174.284 41.2311 174.254 41.2622 174.227 41.2906L174.225 41.2918L174.225 41.2919L174.225 41.2926L174.224 41.2928C174.155 41.3646 174.103 41.4187 174.054 41.4768C172.107 43.7946 169.641 45.1973 166.645 45.6248C164.306 45.9605 162.013 45.7909 159.843 44.7663C157.07 43.4519 155.487 41.2154 154.918 38.2475C154.547 36.3219 154.593 34.3963 155.31 32.5378C156.059 30.5875 157.373 29.0929 159.105 27.9482C160.755 26.8564 162.585 26.2028 164.521 25.8353C166.002 25.5562 167.5 25.4537 169.008 25.4608C170.035 25.4655 171.061 25.464 172.105 25.4624C172.635 25.4616 173.169 25.4608 173.711 25.4608L173.718 25.316V25.3157C173.78 23.9641 173.84 22.6513 173.11 21.4471C172.609 20.6132 171.86 20.0903 170.962 19.79C169.422 19.2777 167.839 19.1999 166.26 19.5568C164.652 19.9207 163.5 20.8924 162.79 22.3798C162.759 22.4401 162.732 22.5019 162.704 22.5641C162.688 22.6003 162.673 22.6367 162.656 22.6731C162.61 22.7685 162.564 22.8639 162.482 23.0335C161.309 22.7769 160.135 22.5215 158.956 22.2647L158.929 22.2587L158.916 22.256L158.912 22.2551C157.929 22.0412 156.943 21.8265 155.95 21.6096C156.116 20.5496 156.455 19.6098 156.925 18.7194C158.419 15.8823 160.79 14.1227 163.822 13.2076C165.818 12.6034 167.857 12.4692 169.938 12.6423C171.552 12.7801 173.132 13.038 174.644 13.6175ZM166.33 38.9789C167.553 39.0071 168.715 38.7492 169.825 38.2475H169.828C172.496 37.0391 173.934 34.7037 173.711 31.9372C173.682 31.9256 173.658 31.9145 173.637 31.9051C173.602 31.8886 173.577 31.8771 173.552 31.8771C172.949 31.8781 172.346 31.8759 171.743 31.8737L171.742 31.8737C170.261 31.8682 168.78 31.8627 167.302 31.9054C166.316 31.9336 165.351 32.188 164.5 32.7463C163.323 33.5236 162.829 34.6683 162.963 36.0074C163.126 37.6716 164.648 38.9435 166.33 38.9789ZM270.542 28.7715C269.168 27.6692 267.596 26.9413 265.956 26.3407C265.307 26.1039 264.653 25.8786 263.999 25.6532L263.999 25.6531L263.998 25.6527L263.997 25.6525C263.071 25.3334 262.145 25.0143 261.232 24.6624C260.625 24.4257 260.02 24.083 259.529 23.659C258.155 22.4789 258.388 20.4897 259.953 19.5958C260.586 19.2354 261.285 19.0835 261.999 19.1506C263.879 19.3273 265.444 20.1328 266.67 21.5779C266.739 21.658 266.808 21.7367 266.886 21.8255L266.886 21.8257L266.94 21.888L267.034 21.9948C267.822 21.2758 268.603 20.563 269.385 19.8502C270.167 19.1374 270.949 18.4245 271.736 17.7055C271.676 17.6148 271.62 17.5289 271.567 17.4468L271.567 17.4458C271.471 17.2981 271.383 17.1622 271.288 17.0307C268.822 13.5787 263.758 11.7273 260.331 12.2644C257.233 12.752 254.745 14.1476 253.032 16.7975C250.753 20.3166 250.852 26.263 256.007 29.1072C257.121 29.7222 258.312 30.2114 259.493 30.6965L259.493 30.6967L259.512 30.7042C260.126 30.9559 260.75 31.1841 261.373 31.4123C262.098 31.6776 262.822 31.9427 263.532 32.2447C264.175 32.5167 264.783 32.9125 265.334 33.3435C266.027 33.8841 266.26 34.6614 266.158 35.5341C265.988 36.9968 265.179 37.9438 263.776 38.3324C261.632 38.926 259.695 38.4879 258.017 37.0216C257.077 36.2019 256.431 35.1666 255.901 34.0537L255.855 33.9573C255.827 33.8989 255.799 33.8402 255.771 33.7805C255.72 33.6742 255.667 33.565 255.611 33.4495L255.523 33.2658C255.115 33.4887 254.71 33.7108 254.305 33.9327L253.448 34.4021L253.446 34.4029L253.411 34.4219C252.004 35.1927 250.597 35.9634 249.152 36.7531C249.227 36.9127 249.296 37.0673 249.363 37.2175L249.364 37.2184C249.5 37.5235 249.629 37.8106 249.778 38.0851C252.784 43.6181 258.914 46.4553 265.172 44.9748C270.094 43.8089 273.228 39.9329 273.372 34.9688C273.447 32.4425 272.531 30.365 270.542 28.7751V28.7715ZM196.931 13.0453V17.9989V18.0024C200.267 13.2997 204.62 11.6073 210.269 13.1655C209.937 14.885 209.608 16.5758 209.281 18.2613C209.134 19.0139 208.988 19.7655 208.842 20.5181C208.631 20.4321 208.43 20.3406 208.233 20.2512C207.816 20.0617 207.419 19.8816 207.001 19.7832C204.591 19.2179 202.447 19.7938 200.624 21.4615C199.288 22.6839 198.514 24.2562 197.97 25.9557C197.235 28.2452 196.974 30.6089 196.956 33.0009C196.936 35.7294 196.939 38.456 196.943 41.1835V41.1839V41.1894C196.944 42.2391 196.946 43.2889 196.946 44.339V45.0986C195.316 45.2267 193.694 45.2534 192.06 45.2803C191.034 45.2973 190.002 45.3143 188.961 45.3566V13.0913C189.409 12.9429 195.999 12.9005 196.931 13.0453ZM288.851 40.2121L288.855 40.2187L288.855 40.2191C288.855 40.2022 288.855 40.1853 288.855 40.1685V39.3032C288.855 39.3023 288.855 39.3014 288.855 39.3005C288.855 39.2523 288.855 39.2041 288.855 39.1559C288.855 39.1202 288.856 39.0845 288.857 39.0488C288.857 39.0302 288.858 39.0117 288.858 38.9931C288.872 38.4419 288.735 37.9402 288.449 37.4632C287.558 35.9828 286.251 35.1737 284.541 34.9476C281.506 34.5519 278.976 36.5093 278.548 39.3005C278.206 41.5547 279.142 43.7311 281.018 44.8229C282.94 45.9429 285.562 45.7733 287.251 44.3812C288.286 43.5262 288.989 42.4839 288.855 41.0494C288.838 40.8609 288.842 40.669 288.847 40.4773C288.849 40.3887 288.851 40.3002 288.851 40.2121Z" fill="#2A5B2B"/>
</svg>
