<svg width="73" height="46" viewBox="0 0 73 46" fill="none" xmlns="http://www.w3.org/2000/svg">
<path d="M29.3782 20.5705C29.3782 20.5705 36.2367 20.0613 36.2367 12.0186C36.2367 3.97526 30.6255 0.0499878 23.5178 0.0499878H0.128784V44.997H23.5178C23.5178 44.997 37.7959 45.4481 37.7959 31.7307C37.7959 31.7309 38.4184 20.5705 29.3782 20.5705ZM21.8342 8.03882H23.5178C23.5178 8.03882 26.697 8.03882 26.697 12.7154C26.697 17.3913 24.8273 18.0693 22.7065 18.0693H10.4343V8.03882H21.8342ZM22.8568 37.0085H10.4343V24.997H23.5178C23.5178 24.997 28.2563 24.9348 28.2563 31.1697C28.2563 36.427 24.7171 36.9688 22.8568 37.0085ZM56.8382 11.4858C39.553 11.4858 39.5683 28.7559 39.5683 28.7559C39.5683 28.7559 38.3823 45.9372 56.8382 45.9372C56.8382 45.9372 72.2179 46.8159 72.2179 33.9851H64.3084C64.3084 33.9851 64.5722 38.817 57.102 38.817C57.102 38.817 49.1912 39.3471 49.1912 30.9972H72.4817C72.4817 30.9971 75.0301 11.4858 56.8382 11.4858ZM49.1042 24.997C49.1042 24.997 50.0701 18.0691 57.0139 18.0691C63.9563 18.0691 63.8694 24.997 63.8694 24.997H49.1042ZM65.7119 8.23284H47.1678V2.69795H65.7119V8.23284Z" fill="#2A5B2B"/>
</svg>
