<?xml version="1.0" encoding="utf-8"?>
<!-- Generator: Adobe Illustrator 28.0.0, SVG Export Plug-In . SVG Version: 6.00 Build 0)  -->
<svg version="1.1" id="Layer_1" xmlns="http://www.w3.org/2000/svg" xmlns:xlink="http://www.w3.org/1999/xlink" x="0px" y="0px"
	 viewBox="0 0 360 360" style="enable-background:new 0 0 360 360;" xml:space="preserve">
<style type="text/css">
	.st0{fill:#2A5B2B;}
</style>
<path class="st0" d="M145.3,167.9c0,0,34.1-2.5,34.1-42.5c0-39.9-27.9-59.4-63.2-59.4H0v223.2h116.2c0,0,70.9,2.2,70.9-65.9
	C187.1,223.4,190.2,167.9,145.3,167.9z M107.8,105.7h8.4c0,0,15.8,0,15.8,23.2c0,23.2-9.3,26.6-19.8,26.6h-61v-49.8H107.8z
	 M112.9,249.6H51.2v-59.7h65c0,0,23.5-0.3,23.5,30.7C139.7,246.7,122.1,249.4,112.9,249.6z M281.7,122.8
	c-85.8,0-85.8,85.8-85.8,85.8s-5.9,85.3,85.8,85.3c0,0,76.4,4.4,76.4-59.4h-39.3c0,0,1.3,24-35.8,24c0,0-39.3,2.6-39.3-38.8h115.7
	C359.4,219.7,372,122.8,281.7,122.8z M243.3,189.9c0,0,4.8-34.4,39.3-34.4c34.5,0,34,34.4,34,34.4H243.3z M325.7,106.7h-92.1V79.2
	h92.1V106.7z"/>
</svg>
