<svg width="189" height="46" viewBox="0 0 189 46" fill="none" xmlns="http://www.w3.org/2000/svg">
<path d="M187.862 36.2845C180.022 49.581 167.601 45.7231 163.867 42.7011C162.28 43.78 159.495 46.1411 155.784 45.8643C147.877 45.2994 145.052 34.0025 145.052 34.0025C143.881 34.46 142.647 34.7362 141.392 34.8216C141.392 38.1372 138.511 46.0507 130.784 45.949C122.114 45.836 120.346 32.9124 120.346 32.9124C120.346 32.9124 119.482 34.1099 116.2 35.3017C116.364 32.7542 116.245 45.5593 105.852 45.7457C97.6335 45.8925 95.4136 32.709 95.4136 32.709C94.2379 33.7636 92.7824 34.456 91.2225 34.7029C91.3976 32.116 91.1151 45.7852 80.7163 45.74C73.6896 45.7118 71.289 37.6175 71.4754 36.4935C71.7127 35.0644 69.1031 45.9377 62.2741 45.7683C59.4498 45.6836 57.3599 43.6445 56.0608 40.9275C54.2985 42.944 51.7341 45.7683 48.8646 45.7683C43.7076 45.7683 41.4369 41.4529 41.821 29.1392C41.8549 27.6763 41.7476 27.1058 40.2959 26.8798C39.4261 26.733 38.5336 26.4618 37.5847 26.315C37.2796 27.326 34.7152 45.435 25.8867 45.7796C22.9269 45.8925 21.3058 43.3281 19.9728 41.4246C17.9337 44.1246 15.2393 45.8643 11.4097 45.8643C4.91396 45.8643 0.491211 40.6112 0.491211 34.1381C0.491211 27.665 4.91396 22.4119 11.4097 22.4119C12.2713 22.4101 13.1256 22.5691 13.9289 22.8807C11.7712 3.23536 16.8661 0.168243 21.3227 0.168243C25.6043 0.168243 32.9134 10.0982 22.6275 35.296C24.8869 42.8085 29.835 42.3849 32.2017 26.9194C32.6818 23.7732 31.3939 19.5312 33.3991 18.9381C37.0593 17.8536 37.4491 21.1014 39.1662 21.6437C40.9794 22.2085 42.0413 22.1577 43.781 22.5249C46.7578 23.0897 47.9213 24.7052 47.5598 28.2693C47.1249 32.7881 46.3624 39.3403 48.6895 40.1311C50.3841 40.696 53.4229 37.2391 53.9595 35.3356C54.3867 34.0595 54.6208 32.7269 54.6543 31.3816C54.6278 28.8913 54.853 26.4046 55.3265 23.9596C55.5468 23.0897 55.7896 22.5079 56.7781 22.4684C57.5915 22.4684 59.0771 22.2029 59.7266 22.7113C60.5965 23.3665 60.4892 24.033 60.3875 25.7784C59.3764 50.705 67.1656 38.2615 69.4985 28.2976C68.6681 17.0345 69.2386 0.360293 76.2766 0.0552759C79.9481 -0.0915841 81.5692 2.85126 81.75 5.04851C82.2527 11.2618 79.4285 21.5194 75.7061 28.4275C73.5823 42.5486 85.0035 45.3107 86.8279 34.076C83.8399 32.6525 80.6146 26.9024 83.2355 24.1008C84.7098 22.5305 90.8496 24.7899 90.9513 29.7153C93.9619 28.9076 94.3404 27.2074 94.4082 27.4898C93.5779 16.2268 94.346 0.377237 101.407 0.0722206C105.078 -0.0746394 106.699 2.86821 106.88 5.06546C107.383 11.2788 104.558 21.5364 100.836 28.4444C98.7123 42.5656 110.133 45.3277 111.958 34.0929C109.744 33.6636 105.072 27.5463 107.767 24.1177C109.207 22.282 115.324 26.0947 116.008 29.8961C118.9 29.0771 119.295 27.4334 119.335 27.7101C118.505 16.4471 119.273 0.597527 126.333 0.29251C130.005 0.14565 131.626 3.0885 131.807 5.28575C132.309 11.4991 129.485 21.7567 125.763 28.6647C123.639 42.7859 135.06 45.548 136.885 34.3132C133.846 33.8048 129.542 27.3486 132.998 24.0443C134.388 22.7225 139.698 26.1512 140.94 30.0599C141.987 30.0098 143.016 29.7646 143.973 29.3369C141.217 16.1139 143.267 0.241679 150.865 0.111764C154.971 0.0383339 158.981 2.33161 157.219 14.9107C155.525 26.9137 149.492 31.9521 149.509 32.0312C149.859 33.4716 152.96 45.5028 160.772 39.1539C160.315 38.2022 159.969 37.2017 159.738 36.1715C158.445 29.5741 160.987 22.1182 167.895 20.9207C171.849 20.2316 175.582 22.1577 176.175 26.5014C177.147 33.6128 170.725 38.7642 168.267 39.8826C167.172 39.2612 178.181 46.3218 184.716 32.1724C185.094 31.3647 185.552 31.4325 186.145 31.8505C186.585 32.1216 188.969 34.3753 187.862 36.2845ZM16.1487 32.3927C15.8155 31.3986 15.132 29.207 14.8948 28.258C13.5674 27.1284 12.6354 26.9137 10.9409 26.9137C7.15075 26.9137 4.9196 30.4157 4.9196 34.1946C4.9196 37.9734 7.34844 41.4754 11.1329 41.4754C14.4147 41.4754 16.9169 39.2161 17.6795 36.0812C17.092 34.8724 16.5611 33.7427 16.1205 32.3927H16.1487ZM21.2324 5.37048C18.5719 5.37048 17.6682 11.725 17.8433 17.1419C18.0098 20.8643 18.747 24.5391 20.0292 28.0377C20.2043 28.275 20.1704 28.1225 20.3286 28.371C24.9377 18.2377 23.0229 5.36483 21.2154 5.36483L21.2324 5.37048ZM76.6777 5.56817C73.2377 5.17278 73.2603 19.5086 73.684 22.7226C75.4689 19.8644 78.5755 6.34201 76.6777 5.56817ZM101.808 5.56817C98.3677 5.17278 98.3904 19.5086 98.814 22.7226C100.588 19.8644 103.694 6.33636 101.796 5.56817H101.808ZM126.74 5.76587C123.3 5.37048 123.323 19.7063 123.746 22.9259C125.531 20.0678 128.638 6.54536 126.74 5.76587ZM151.271 4.72656C145.911 5.80541 147.159 23.6828 147.973 26.8177C154.288 18.1416 154.417 4.40459 151.271 4.72656ZM171.368 27.0662C171.191 26.5423 170.837 26.0964 170.367 25.8048C169.898 25.5131 169.341 25.394 168.793 25.4677C166.098 25.8349 163.489 29.19 164.5 34.2906C164.66 35.0386 164.922 35.7609 165.279 36.437C171.289 32.3984 171.798 29.2239 171.352 27.0662H171.368ZM57.8344 18.5314C56.8683 18.5294 55.9375 18.1682 55.223 17.518C54.5085 16.8678 54.0614 15.9751 53.9686 15.0135C53.8758 14.0519 54.1439 13.0901 54.7209 12.3153C55.2978 11.5404 56.1424 11.0079 57.0902 10.8212C58.0381 10.6345 59.0215 10.807 59.8492 11.3052C60.6769 11.8033 61.2898 12.5915 61.5686 13.5165C61.8474 14.4415 61.7722 15.4371 61.3576 16.3097C60.943 17.1823 60.2187 17.8695 59.3256 18.2377C58.8527 18.4326 58.3459 18.5324 57.8344 18.5314Z" fill="#2A5B2B"/>
</svg>
