<?xml version="1.0" encoding="utf-8"?>
<!-- Generator: Adobe Illustrator 28.0.0, SVG Export Plug-In . SVG Version: 6.00 Build 0)  -->
<svg version="1.1" id="Layer_1" xmlns="http://www.w3.org/2000/svg" xmlns:xlink="http://www.w3.org/1999/xlink" x="0px" y="0px"
	 viewBox="0 0 360 360" style="enable-background:new 0 0 360 360;" xml:space="preserve">
<style type="text/css">
	.st0{fill:#2A5B2B;}
</style>
<path class="st0" d="M359.4,205.5c-15,25.5-38.9,18.1-46,12.3c-3,2.1-8.4,6.6-15.5,6.1c-15.2-1.1-20.6-22.8-20.6-22.8
	c-2.2,0.9-4.6,1.4-7,1.6c0,6.4-5.5,21.5-20.3,21.3c-16.6-0.2-20-25-20-25s-1.7,2.3-8,4.6c0.3-4.9,0.1,19.7-19.9,20
	c-15.8,0.3-20-25-20-25c-2.3,2-5,3.4-8,3.8c0.3-5-0.2,21.3-20.2,21.2c-13.5-0.1-18.1-15.6-17.7-17.7c0.5-2.7-4.6,18.1-17.7,17.8
	c-5.4-0.2-9.4-4.1-11.9-9.3c-3.4,3.9-8.3,9.3-13.8,9.3c-9.9,0-14.2-8.3-13.5-31.9c0.1-2.8-0.1-3.9-2.9-4.3c-1.7-0.3-3.4-0.8-5.2-1.1
	c-0.6,1.9-5.5,36.7-22.4,37.3c-5.7,0.2-8.8-4.7-11.3-8.4c-3.9,5.2-9.1,8.5-16.4,8.5C8.5,223.9,0,213.8,0,201.4s8.5-22.5,20.9-22.5
	c1.7,0,3.3,0.3,4.8,0.9c-4.1-37.7,5.6-43.6,14.2-43.6c8.2,0,22.2,19,2.5,67.4c4.3,14.4,13.8,13.6,18.4-16.1c0.9-6-1.5-14.2,2.3-15.3
	c7-2.1,7.8,4.1,11.1,5.2c3.5,1.1,5.5,1,8.9,1.7c5.7,1.1,7.9,4.2,7.2,11c-0.8,8.7-2.3,21.2,2.2,22.8c3.3,1.1,9.1-5.5,10.1-9.2
	c0.8-2.4,1.3-5,1.3-7.6c-0.1-4.8,0.4-9.5,1.3-14.2c0.4-1.7,0.9-2.8,2.8-2.9c1.6,0,4.4-0.5,5.7,0.5c1.7,1.3,1.5,2.5,1.3,5.9
	c-1.9,47.8,13,23.9,17.5,4.8c-1.6-21.6-0.5-53.6,13-54.2c7-0.3,10.2,5.4,10.5,9.6c1,11.9-4.5,31.6-11.6,44.8
	c-4.1,27.1,17.8,32.4,21.3,10.8c-5.7-2.7-11.9-13.8-6.9-19.1c2.8-3,14.6,1.3,14.8,10.8c5.8-1.5,6.5-4.8,6.6-4.3
	c-1.6-21.6-0.1-52,13.4-52.6c7-0.3,10.2,5.4,10.5,9.6c1,11.9-4.5,31.6-11.6,44.8c-4.1,27.1,17.8,32.4,21.3,10.8
	c-4.2-0.8-13.2-12.6-8-19.1c2.8-3.5,14.5,3.8,15.8,11.1c5.5-1.6,6.3-4.7,6.4-4.2c-1.6-21.6-0.1-52,13.4-52.6
	c7-0.3,10.2,5.4,10.5,9.6c1,11.9-4.5,31.6-11.6,44.8c-4.1,27.1,17.8,32.4,21.3,10.8c-5.8-1-14.1-13.4-7.5-19.7
	c2.7-2.5,12.9,4,15.2,11.5c2-0.1,4-0.6,5.8-1.4c-5.3-25.4-1.4-55.8,13.2-56.1c7.9-0.1,15.6,4.3,12.2,28.4
	c-3.2,23-14.8,32.7-14.8,32.8c0.7,2.8,6.6,25.8,21.6,13.7c-0.9-1.8-1.5-3.7-2-5.7c-2.5-12.7,2.4-27,15.6-29.3
	c7.6-1.3,14.7,2.4,15.9,10.7c1.9,13.6-10.5,23.5-15.2,25.7c-2.1-1.2,19,12.4,31.6-14.8c0.7-1.5,1.6-1.4,2.7-0.6
	C357,197.5,361.6,201.8,359.4,205.5z M30,198c-0.6-1.9-2-6.1-2.4-7.9c-2.5-2.2-4.3-2.6-7.6-2.6c-7.3,0-11.6,6.7-11.6,14
	c0,7.2,4.7,14,11.9,14c6.3,0,11.1-4.3,12.6-10.3C31.8,202.8,30.8,200.6,30,198L30,198z M39.8,146.2c-5.1,0-6.8,12.2-6.5,22.6
	c0.3,7.1,1.7,14.2,4.2,20.9c0.3,0.5,0.3,0.2,0.6,0.6C46.9,170.9,43.2,146.2,39.8,146.2L39.8,146.2z M146.2,146.6
	c-6.6-0.8-6.6,26.7-5.7,32.9C143.8,174,149.8,148,146.2,146.6z M194.4,146.6c-6.6-0.8-6.6,26.7-5.7,32.9
	C192,174,198,148,194.4,146.6L194.4,146.6z M242.2,146.9c-6.6-0.8-6.6,26.7-5.7,32.9C239.9,174.4,245.8,148.4,242.2,146.9z
	 M289.2,144.9c-10.3,2.1-7.9,36.4-6.3,42.4C295,170.7,295.3,144.3,289.2,144.9z M327.8,187.8c-0.3-1-1-1.9-1.9-2.4
	c-0.9-0.6-2-0.8-3-0.6c-5.2,0.7-10.2,7.1-8.2,16.9c0.3,1.4,0.8,2.8,1.5,4.1C327.7,198,328.6,191.9,327.8,187.8L327.8,187.8z
	 M110,171.4c-1.9,0-3.6-0.7-5-1.9c-1.4-1.2-2.2-3-2.4-4.8c-0.2-1.8,0.3-3.7,1.4-5.2c1.1-1.5,2.7-2.5,4.5-2.9c1.8-0.4,3.7,0,5.3,0.9
	c1.6,1,2.8,2.5,3.3,4.2c0.5,1.8,0.4,3.7-0.4,5.4s-2.2,3-3.9,3.7C112,171.2,111,171.4,110,171.4z"/>
</svg>
