<?xml version="1.0" encoding="utf-8"?>
<!-- Generator: Adobe Illustrator 28.0.0, SVG Export Plug-In . SVG Version: 6.00 Build 0)  -->
<svg version="1.1" id="Layer_1" xmlns="http://www.w3.org/2000/svg" xmlns:xlink="http://www.w3.org/1999/xlink" x="0px" y="0px"
	 viewBox="0 0 360 360" style="enable-background:new 0 0 360 360;" xml:space="preserve">
<style type="text/css">
	.st0{fill:#2A5B2B;}
</style>
<g>
	<path class="st0" d="M356.5,144.7H342V144H180v72h101.7c-14.8,41.9-54.7,72-101.7,72c-59.6,0-108-48.4-108-108S120.4,72,180,72
		c27.5,0,52.6,10.4,71.6,27.4l50.9-50.9C270.4,18.5,227.4,0,180,0C80.6,0,0,80.6,0,180s80.6,180,180,180s180-80.6,180-180
		C360,167.9,358.8,156.2,356.5,144.7z"/>
	<path class="st0" d="M20.8,96.2l59.1,43.4C95.9,100,134.6,72,180,72c27.5,0,52.6,10.4,71.6,27.4l50.9-50.9
		C270.4,18.5,227.4,0,180,0C110.9,0,50.9,39,20.8,96.2z"/>
	<path class="st0" d="M180,360c46.5,0,88.7-17.8,120.7-46.7L245,266.1c-18.1,13.7-40.5,21.9-65,21.9c-46.8,0-86.6-29.9-101.5-71.5
		l-58.7,45.2C49.5,320,110,360,180,360z"/>
	<path class="st0" d="M356.5,144.7H342V144H180v72h101.7c-7.1,20.1-20.1,37.5-36.8,50.1c0,0,0,0,0,0l55.7,47.1
		C296.7,316.8,360,270,360,180C360,167.9,358.8,156.2,356.5,144.7z"/>
</g>
</svg>
