<svg width="141" height="46" viewBox="0 0 141 46" fill="none" xmlns="http://www.w3.org/2000/svg">
<path fill-rule="evenodd" clip-rule="evenodd" d="M18.667 16.355V21.2211L30.2971 21.2159C29.9403 23.8998 29.0353 25.8649 27.6598 27.2405C25.9636 28.9366 23.3159 30.8034 18.667 30.8034C11.4996 30.8034 5.89395 25.0272 5.89395 17.8598C5.89395 10.6924 11.4996 4.91614 18.667 4.91614C22.5351 4.91614 25.3586 6.43649 27.4426 8.39122L30.8763 4.95751C27.97 2.18055 24.1019 0.0499878 18.6721 0.0499878C8.85708 0.0499878 0.60376 8.04475 0.60376 17.8598C0.60376 27.6748 8.85708 35.6696 18.6721 35.6696C23.9675 35.6696 27.9649 33.9321 31.0935 30.6742C34.31 27.4576 35.3081 22.9431 35.3081 19.2922C35.3081 18.2063 35.2253 17.203 35.065 16.355H18.667ZM116.771 34.9711V1.35796H111.858V34.9711H116.771ZM48.7688 35.6748C55.1088 35.6748 60.2748 30.8086 60.2748 24.2049C60.2748 17.5547 55.1088 12.7351 48.7688 12.7351C42.4288 12.7351 37.2628 17.5547 37.2628 24.2049C37.2628 30.8086 42.4288 35.6748 48.7688 35.6748ZM48.7688 17.2548C52.2439 17.2548 55.238 20.0783 55.238 24.2049C55.238 28.285 52.2439 31.1551 48.7688 31.1551C45.2937 31.1551 42.2996 28.2902 42.2996 24.2049C42.2996 20.0783 45.2937 17.2548 48.7688 17.2548ZM73.591 35.6748C79.931 35.6748 85.0971 30.8086 85.0971 24.2049C85.0971 17.5547 79.931 12.7351 73.591 12.7351C67.2511 12.7351 62.085 17.5599 62.085 24.2049C62.085 30.8086 67.2511 35.6748 73.591 35.6748ZM73.591 17.2548C77.0661 17.2548 80.0603 20.0783 80.0603 24.2049C80.0603 28.285 77.0661 31.1551 73.591 31.1551C70.116 31.1551 67.1218 28.2902 67.1218 24.2049C67.1218 20.0783 70.116 17.2548 73.591 17.2548ZM108.885 13.4332V34.02C108.885 42.4905 103.889 45.9501 97.9838 45.9501C92.4248 45.9501 89.0789 42.2319 87.8172 39.1912L92.2024 37.3658C92.9832 39.2326 94.8966 41.4355 97.9787 41.4355C101.759 41.4355 104.101 39.1033 104.101 34.7129V33.0633H103.926C102.798 34.4543 100.626 35.6696 97.8856 35.6696C92.1507 35.6696 86.8967 30.6742 86.8967 24.2463C86.8967 17.7719 92.1507 12.7351 97.8856 12.7351C100.621 12.7351 102.793 13.9503 103.926 15.3H104.101V13.4332H108.885ZM104.458 24.2463C104.458 20.2075 101.764 17.2548 98.3355 17.2548C94.8604 17.2548 91.949 20.2075 91.949 24.2463C91.949 28.2437 94.8604 31.1551 98.3355 31.1551C101.764 31.1551 104.458 28.2437 104.458 24.2463ZM135.915 27.9798L139.824 30.5862C138.563 32.453 135.522 35.6695 130.268 35.6695C123.752 35.6695 118.886 30.6327 118.886 24.1996C118.886 17.3788 123.794 12.7298 129.704 12.7298C135.656 12.7298 138.568 17.4667 139.519 20.0264L140.042 21.3296L124.709 27.6799C125.883 29.9811 127.708 31.155 130.268 31.155C132.833 31.155 134.612 29.8932 135.915 27.9798ZM123.881 23.8532L134.131 19.5972C133.567 18.1648 131.871 17.1667 129.875 17.1667C127.315 17.1667 123.752 19.4266 123.881 23.8532Z" fill="#2A5B2B"/>
</svg>
