<?xml version="1.0" encoding="utf-8"?>
<!-- Generator: Adobe Illustrator 28.0.0, SVG Export Plug-In . SVG Version: 6.00 Build 0)  -->
<svg version="1.1" id="Layer_1" xmlns="http://www.w3.org/2000/svg" xmlns:xlink="http://www.w3.org/1999/xlink" x="0px" y="0px"
	 viewBox="0 0 360 360" style="enable-background:new 0 0 360 360;" xml:space="preserve">
<style type="text/css">
	.st0{fill:#2A5B2B;}
</style>
<g>
	<path class="st0" d="M359.2,120.3v-14.9h-56.2l-4.9,14.9H359.2z M247.2,232.3v-14.9h-29.9h-14.9v14.9H247.2z M297.7,209.9l5.6-14.9
		h-44.8l5.6,14.9H297.7z M217.3,194.9h29.9v14.9h-29.9V194.9z M217.3,172.5h29.9v14.9h-29.9V172.5z M314.4,217.3v14.9h44.8v-14.9
		h-14.9H314.4z M270.9,142.7l-4.9-14.9h-63.6v14.9h14.9H270.9z M278.3,165.1l-4.9-14.9h-56.1v14.9H278.3z M250,172.5l5.6,14.9H306
		l5.6-14.9H250z M314.4,172.5h29.9v14.9h-29.9V172.5z M202.4,239.7h44.8v14.9h-44.8V239.7z M263.5,120.3l-4.9-14.9h-56.2v14.9H263.5
		z M275.4,239.7l5.6,14.9l5.6-14.9H275.4z M314.4,239.7h44.8v14.9h-44.8V239.7z M295.5,127.7l-4.9,14.9h53.6h14.9v-14.9H295.5z
		 M294.9,217.3h-28l5.6,14.9h16.8L294.9,217.3z M314.4,194.9h29.9v14.9h-29.9V194.9z M288.2,150.1l-4.9,14.9h61v-14.9H288.2z
		 M0.8,105.4h59.7v14.9H0.8V105.4z M0.8,127.7h59.7v14.9H0.8V127.7z M15.8,150.1h29.9v14.9H15.8V150.1z M15.8,172.5h29.9v14.9H15.8
		V172.5z M15.8,194.9h29.9v14.9H15.8V194.9z M0.8,217.3h59.7v14.9H0.8V217.3z M0.8,239.7h59.7v14.9H0.8V239.7z M75.5,127.7h59.7
		v14.9H75.5V127.7z M187.3,120.3c-6.8-9-17.5-14.9-29.7-14.9H75.5v14.9h52.4H187.3z"/>
	<path class="st0" d="M191.8,127.7h-68.2c-2.1,4.6-3.3,9.6-3.3,14.9h74.6C194.9,137.4,193.8,132.3,191.8,127.7z M179.8,172.5H90.4
		v14.9h89.4c-6.2-4.6-13.8-7.5-22.2-7.5C166,180,173.6,177.2,179.8,172.5z M127.9,239.7H75.5v14.9h82.1c12.2,0,22.9-5.9,29.7-14.9
		H127.9z M135.2,217.3h-14.9H75.5v14.9h48.1h11.6h56.6c2-4.6,3.2-9.6,3.2-14.9H135.2z M157.6,150.1c0,0,0,0.6,0,7.5
		s-7.5,7.5-7.5,7.5h37.2c3.3-4.4,5.7-9.4,6.9-14.9H157.6z M90.4,150.1h37.3v14.9H90.4V150.1z"/>
	<g>
		<path class="st0" d="M157.6,209.9h36.5c-1.2-5.5-3.5-10.6-6.8-14.9h-37.2c0,0,7.5,1.2,7.5,7.5S157.6,209.9,157.6,209.9z
			 M90.4,194.9h37.3v14.9H90.4V194.9z"/>
	</g>
</g>
</svg>
