<?xml version="1.0" encoding="utf-8"?>
<!-- Generator: Adobe Illustrator 28.0.0, SVG Export Plug-In . SVG Version: 6.00 Build 0)  -->
<svg version="1.1" id="Layer_1" xmlns="http://www.w3.org/2000/svg" xmlns:xlink="http://www.w3.org/1999/xlink" x="0px" y="0px"
	 viewBox="0 0 360 360" style="enable-background:new 0 0 360 360;" xml:space="preserve">
<style type="text/css">
	.st0{fill:#2A5B2B;}
	.st1{fill:#263238;}
	.st2{fill:#FFFFFF;}
</style>
<path class="st0" d="M0,40C0,18,18,0,40,0h280c22,0,40,18,40,40v280c0,22-18,40-40,40H40c-22,0-40-18-40-40V40z"/>
<path class="st1" d="M240,130c-4,0-8,1-12,2c1-5,2-10,2-15c0-37-25-66-60-66c-13,0-21,5-30,10h-40v180l40-10v-55c7,3,19,4,27,4
	c1,0,2,0,3,0v140l40-10v-55c7,3,19,4,27,4c35,0,63-27,63-63S275,130,240,130z M152,150c-4,0-9-1-12-4V84c4-2,8-4,12-4
	c15,0,28,16,28,35c0,10-3,19-8,25h-2v2C165,147,159,150,152,150z M222,230c-4,0-9-1-12-4v-62c4-2,8-4,12-4c15,0,28,16,28,35
	S238,230,222,230z"/>
<path class="st2" d="M160,40c-13,0-21,5-30,10H90v180l40-10v-55c7,3,19,4,27,4c35,0,63-27,63-63S195,40,160,40z M142,140
	c-4,0-9-1-12-4V74c4-2,8-4,12-4c15,0,28,16,28,35S158,140,142,140z M290,186c0,37-28,63-63,63c-8,0-20-1-27-4v55l-40,10V179
	c2,0,5,0,7,0c12,0,24-3,33-9v46c4,2,8,4,12,4c15,0,28-16,28-35c0-16-9-29-20-34c6-9,9-20,10-31l0,0C265,120,290,150,290,186z"/>
</svg>
