<?xml version="1.0" encoding="utf-8"?>
<!-- Generator: Adobe Illustrator 28.0.0, SVG Export Plug-In . SVG Version: 6.00 Build 0)  -->
<svg version="1.1" id="Layer_1" xmlns="http://www.w3.org/2000/svg" xmlns:xlink="http://www.w3.org/1999/xlink" x="0px" y="0px"
	 viewBox="0 0 360 360" style="enable-background:new 0 0 360 360;" xml:space="preserve">
<style type="text/css">
	.st0{fill:#2A5B2B;}
</style>
<path class="st0" d="M180,0C80.7,0,0,80.7,0,180s80.7,180,180,180s180-80.7,180-180S279.3,0,180,0z M278.1,257.4l-26.1-41.8
	c5.4-10.8,8.5-22.9,8.5-35.7c0-44.4-36-80.4-80.4-80.4s-80.4,36-80.4,80.4s36,80.4,80.4,80.4c9.7,0,19-1.8,27.6-5l-11.7-18.7
	l31.9-20l48.1,76.9c-9.6,8.1-20.2,14.9-31.6,20.4l-12.7-20.3c-15.7,7.2-33.1,11.3-51.6,11.3c-69.1,0-125.1-56-125.1-125.1
	c0-69.1,56-125.1,125.1-125.1s125.1,56,125.1,125.1C305.1,209.2,294.9,236,278.1,257.4z M225.5,160.8l-41.3,50.1
	c-1.9,2.3-4.6,3.6-7.6,3.6c-0.1,0-0.2,0-0.4,0c-3-0.1-5.9-1.6-7.6-4.1l-16.6-23.5c-3.1-4.4-2.1-10.5,2.3-13.6
	c4.4-3.1,10.5-2.1,13.6,2.3l9.2,13l33.1-40.2c3.4-4.2,9.6-4.8,13.8-1.3C228.3,150.4,228.9,156.6,225.5,160.8z"/>
</svg>
