<?xml version="1.0" encoding="utf-8"?>
<!-- Generator: Adobe Illustrator 28.0.0, SVG Export Plug-In . SVG Version: 6.00 Build 0)  -->
<svg version="1.1" id="Layer_1" xmlns="http://www.w3.org/2000/svg" xmlns:xlink="http://www.w3.org/1999/xlink" x="0px" y="0px"
	 viewBox="0 0 360 360" style="enable-background:new 0 0 360 360;" xml:space="preserve">
<style type="text/css">
	.st0{fill:#2A5B2B;}
</style>
<g>
	<path class="st0" d="M210.7,149.3c-34,0-61.5,27.5-61.5,61.5s27.5,61.5,61.5,61.5s61.5-27.5,61.5-61.5S244.7,149.3,210.7,149.3z
		 M210.7,228.3c-9.7,0-17.6-7.9-17.6-17.6s7.9-17.6,17.6-17.6s17.6,7.9,17.6,17.6S220.4,228.3,210.7,228.3z"/>
	<circle class="st0" cx="70.2" cy="70.2" r="26.3"/>
	<path class="st0" d="M237.1,63.9V26.3c0-14.5-11.8-26.3-26.3-26.3c-14.5,0-26.3,11.8-26.3,26.3v37.6
		C123.1,74.9,74.9,123.1,63.9,184.4H26.3C11.8,184.4,0,196.2,0,210.7c0,14.5,11.8,26.3,26.3,26.3h37.6
		C76.4,306.9,137.3,360,210.7,360c82.4,0,149.3-66.8,149.3-149.3C360,137.3,306.9,76.4,237.1,63.9z M210.7,307.3
		c-53.2,0-96.6-43.4-96.6-96.6s43.4-96.6,96.6-96.6s96.6,43.4,96.6,96.6S264,307.3,210.7,307.3z"/>
</g>
</svg>
