<?xml version="1.0" encoding="utf-8"?>
<!-- Generator: Adobe Illustrator 28.0.0, SVG Export Plug-In . SVG Version: 6.00 Build 0)  -->
<svg version="1.1" id="Layer_1" xmlns="http://www.w3.org/2000/svg" xmlns:xlink="http://www.w3.org/1999/xlink" x="0px" y="0px"
	 viewBox="0 0 360 360" style="enable-background:new 0 0 360 360;" xml:space="preserve">
<style type="text/css">
	.st0{fill:#2A5B2B;}
	.st1{fill:#FFFFFF;}
</style>
<g>
	<path class="st0" d="M232,167.8c-1,0-3.9,0.3-7,3.6v27.5c1.5,0.7,3.1,1.1,5,1.1c2.7,0,5-1.4,6.5-4.3c1.7-3,2.5-7.4,2.5-13
		C238.9,172.8,236.7,167.8,232,167.8z M289.6,166.3c-0.5,0-0.9-0.1-1.3,0c-3.3,0.8-5.2,4.9-5.6,12.1h13.7
		C296,170.2,293.7,166.3,289.6,166.3z M289.6,166.3c-0.5,0-0.9-0.1-1.3,0c-3.3,0.8-5.2,4.9-5.6,12.1h13.7
		C296,170.2,293.7,166.3,289.6,166.3z M232,167.8c-1,0-3.9,0.3-7,3.6v27.5c1.5,0.7,3.1,1.1,5,1.1c2.7,0,5-1.4,6.5-4.3
		c1.7-3,2.5-7.4,2.5-13C238.9,172.8,236.7,167.8,232,167.8z M232,167.8c-1,0-3.9,0.3-7,3.6v27.5c1.5,0.7,3.1,1.1,5,1.1
		c2.7,0,5-1.4,6.5-4.3c1.7-3,2.5-7.4,2.5-13C238.9,172.8,236.7,167.8,232,167.8z M289.6,166.3c-0.5,0-0.9-0.1-1.3,0
		c-3.3,0.8-5.2,4.9-5.6,12.1h13.7C296,170.2,293.7,166.3,289.6,166.3z M289.6,166.3c-0.5,0-0.9-0.1-1.3,0c-3.3,0.8-5.2,4.9-5.6,12.1
		h13.7C296,170.2,293.7,166.3,289.6,166.3z M232,167.8c-1,0-3.9,0.3-7,3.6v27.5c1.5,0.7,3.1,1.1,5,1.1c2.7,0,5-1.4,6.5-4.3
		c1.7-3,2.5-7.4,2.5-13C238.9,172.8,236.7,167.8,232,167.8z M232,167.8c-1,0-3.9,0.3-7,3.6v27.5c1.5,0.7,3.1,1.1,5,1.1
		c2.7,0,5-1.4,6.5-4.3c1.7-3,2.5-7.4,2.5-13C238.9,172.8,236.7,167.8,232,167.8z M289.6,166.3c-0.5,0-0.9-0.1-1.3,0
		c-3.3,0.8-5.2,4.9-5.6,12.1h13.7C296,170.2,293.7,166.3,289.6,166.3z M289.6,166.3c-0.5,0-0.9-0.1-1.3,0c-3.3,0.8-5.2,4.9-5.6,12.1
		h13.7C296,170.2,293.7,166.3,289.6,166.3z M232,167.8c-1,0-3.9,0.3-7,3.6v27.5c1.5,0.7,3.1,1.1,5,1.1c2.7,0,5-1.4,6.5-4.3
		c1.7-3,2.5-7.4,2.5-13C238.9,172.8,236.7,167.8,232,167.8z M232,167.8c-1,0-3.9,0.3-7,3.6v27.5c1.5,0.7,3.1,1.1,5,1.1
		c2.7,0,5-1.4,6.5-4.3c1.7-3,2.5-7.4,2.5-13C238.9,172.8,236.7,167.8,232,167.8z M289.6,166.3c-0.5,0-0.9-0.1-1.3,0
		c-3.3,0.8-5.2,4.9-5.6,12.1h13.7C296,170.2,293.7,166.3,289.6,166.3z M289.6,166.3c-0.5,0-0.9-0.1-1.3,0c-3.3,0.8-5.2,4.9-5.6,12.1
		h13.7C296,170.2,293.7,166.3,289.6,166.3z M232,167.8c-1,0-3.9,0.3-7,3.6v27.5c1.5,0.7,3.1,1.1,5,1.1c2.7,0,5-1.4,6.5-4.3
		c1.7-3,2.5-7.4,2.5-13C238.9,172.8,236.7,167.8,232,167.8z M324,50.4H36c-19.9,0-36,16.1-36,36v187.2c0,19.8,16.1,36,36,36h288
		c19.8,0,36-16.2,36-36V86.4C360,66.6,343.8,50.4,324,50.4z M68.4,189.9c-10.1-3.7-16.2-8.1-16.2-18.2c0-5.6,2-10.1,5.8-13.3
		c3.7-3.1,8.8-4.7,15.1-4.7c8.9,0,15.3,2.3,18.5,3.8l-2.2,14c-3.9-1.9-9.7-4-15.3-4c-3.1,0-4.7,1.1-4.7,3.1c0,2.5,3.1,4,8.5,6.1
		c10.2,3.7,16.4,7.9,16.4,18.2c0,6.2-2.1,11.1-6.3,14.4c-3.7,3-9.3,4.7-16,4.7c-8.4,0-16.4-2.7-20.7-5.2l2.2-13.9
		c5.1,3,12.8,5.4,17.5,5.4c3.8,0,5.8-1.3,5.8-3.8C77,193.9,74.9,192.2,68.4,189.9z M133,154.8l-2.2,13.7h-9.7v24.3
		c0,4.2,1.7,6.1,5.4,6.1c1.7,0,4.3-0.6,5.4-0.9v14.6c-2,0.5-5.1,1.4-9.9,1.4c-6.2,0-10.4-1.4-13.5-3.8c-3.7-3-5.4-7.6-5.4-14.6v-27
		h-7.7l2-12.8l5.6-0.9l2.2-13.9l15.8-2.7v16.6H133z M140.2,212.8v-58h16.2l1.1,6.8c1.6-4.9,5.8-7.6,11-7.6c1.1,0,2.1,0.2,3.4,0.4
		v17.1c-1.3-0.2-2.2-0.2-3.2-0.2c-4.5,0-7.8,1-10.1,3.8v37.8H140.2z M188.5,149c-5.4,0-9.9-4.3-9.9-9.7c0-4.8,3.4-8.8,7.9-9.7
		c0.6-0.1,1.3,0,2,0c5.4,0,9.7,4.2,9.7,9.7C198.2,144.7,193.9,149,188.5,149z M197.8,154.8v58h-18.7v-58H197.8z M206.3,234.2v-79.4
		h16.4l0.9,5.9c4.4-4.7,9-7,14.4-7c5.8,0,10.4,2,13.7,6.3c3.7,4.8,5.6,12.2,5.6,22c0,11.1-2.6,19.5-7.7,25c-5.2,5.7-11.8,7-16.4,7
		c-2.6,0-5.5-0.5-8.3-1.4v18.5L206.3,234.2z M313.4,189.7h-30.6c0.4,3.8,1.4,6.5,3.4,8.1c1.8,1.6,4.3,2.2,7.9,2.2
		c6,0,11.2-1.1,15.8-3.6l2,12.6c-4.6,3.1-11.9,5-19.8,5c-8.6,0-15.2-2.3-19.8-6.8c-5.1-5-7.9-12.7-7.9-23.2
		c0-18.6,9.9-30.4,25.7-30.4c7.7,0,13.5,2.6,17.5,7.9c3.9,5.2,6.1,12.4,6.1,21.6C313.6,184.5,313.5,188.8,313.4,189.7z M289.6,166.3
		c-0.5,0-0.9-0.1-1.3,0c-3.3,0.8-5.2,4.9-5.6,12.1h13.7C296,170.2,293.7,166.3,289.6,166.3z M236.5,195.8c1.7-3,2.5-7.4,2.5-13
		c0-9.9-2.3-14.9-7-14.9c-1,0-3.9,0.3-7,3.6v27.5c1.5,0.7,3.1,1.1,5,1.1C232.6,200,235,198.6,236.5,195.8z M232,167.8
		c-1,0-3.9,0.3-7,3.6v27.5c1.5,0.7,3.1,1.1,5,1.1c2.7,0,5-1.4,6.5-4.3c1.7-3,2.5-7.4,2.5-13C238.9,172.8,236.7,167.8,232,167.8z
		 M289.6,166.3c-0.5,0-0.9-0.1-1.3,0c-3.3,0.8-5.2,4.9-5.6,12.1h13.7C296,170.2,293.7,166.3,289.6,166.3z M289.6,166.3
		c-0.5,0-0.9-0.1-1.3,0c-3.3,0.8-5.2,4.9-5.6,12.1h13.7C296,170.2,293.7,166.3,289.6,166.3z M232,167.8c-1,0-3.9,0.3-7,3.6v27.5
		c1.5,0.7,3.1,1.1,5,1.1c2.7,0,5-1.4,6.5-4.3c1.7-3,2.5-7.4,2.5-13C238.9,172.8,236.7,167.8,232,167.8z M232,167.8
		c-1,0-3.9,0.3-7,3.6v27.5c1.5,0.7,3.1,1.1,5,1.1c2.7,0,5-1.4,6.5-4.3c1.7-3,2.5-7.4,2.5-13C238.9,172.8,236.7,167.8,232,167.8z
		 M289.6,166.3c-0.5,0-0.9-0.1-1.3,0c-3.3,0.8-5.2,4.9-5.6,12.1h13.7C296,170.2,293.7,166.3,289.6,166.3z M289.6,166.3
		c-0.5,0-0.9-0.1-1.3,0c-3.3,0.8-5.2,4.9-5.6,12.1h13.7C296,170.2,293.7,166.3,289.6,166.3z M232,167.8c-1,0-3.9,0.3-7,3.6v27.5
		c1.5,0.7,3.1,1.1,5,1.1c2.7,0,5-1.4,6.5-4.3c1.7-3,2.5-7.4,2.5-13C238.9,172.8,236.7,167.8,232,167.8z M232,167.8
		c-1,0-3.9,0.3-7,3.6v27.5c1.5,0.7,3.1,1.1,5,1.1c2.7,0,5-1.4,6.5-4.3c1.7-3,2.5-7.4,2.5-13C238.9,172.8,236.7,167.8,232,167.8z
		 M289.6,166.3c-0.5,0-0.9-0.1-1.3,0c-3.3,0.8-5.2,4.9-5.6,12.1h13.7C296,170.2,293.7,166.3,289.6,166.3z M289.6,166.3
		c-0.5,0-0.9-0.1-1.3,0c-3.3,0.8-5.2,4.9-5.6,12.1h13.7C296,170.2,293.7,166.3,289.6,166.3z M232,167.8c-1,0-3.9,0.3-7,3.6v27.5
		c1.5,0.7,3.1,1.1,5,1.1c2.7,0,5-1.4,6.5-4.3c1.7-3,2.5-7.4,2.5-13C238.9,172.8,236.7,167.8,232,167.8z"/>
	<path class="st1" d="M94.3,194.8c0,6.2-2.1,11.1-6.3,14.4c-3.7,3-9.3,4.7-16,4.7c-8.4,0-16.4-2.7-20.7-5.2l2.2-13.9
		c5.1,3,12.8,5.4,17.5,5.4c3.8,0,5.8-1.3,5.8-3.8c0-2.5-2.1-4.2-8.5-6.5c-10.1-3.7-16.2-8.1-16.2-18.2c0-5.6,2-10.1,5.8-13.3
		c3.7-3.1,8.8-4.7,15.1-4.7c8.9,0,15.3,2.3,18.5,3.8l-2.2,14c-3.9-1.9-9.7-4-15.3-4c-3.1,0-4.7,1.1-4.7,3.1c0,2.5,3.1,4,8.5,6.1
		C88.1,180.3,94.3,184.5,94.3,194.8z"/>
	<path class="st1" d="M126.5,198.9c1.7,0,4.3-0.6,5.4-0.9v14.6c-2,0.5-5.1,1.4-9.9,1.4c-6.2,0-10.4-1.4-13.5-3.8
		c-3.7-3-5.4-7.6-5.4-14.6v-27h-7.7l2-12.8l5.6-0.9l2.2-13.9l15.8-2.7v16.6H133l-2.2,13.7h-9.7v24.3
		C121.1,197.1,122.8,198.9,126.5,198.9z"/>
	<path class="st1" d="M171.9,154.3v17.1c-1.3-0.2-2.2-0.2-3.2-0.2c-4.5,0-7.8,1-10.1,3.8v37.8h-18.4v-58h16.2l1.1,6.8
		c1.6-4.9,5.8-7.6,11-7.6C169.7,153.9,170.6,154.1,171.9,154.3z"/>
	<path class="st1" d="M198.2,139.3c0,5.4-4.3,9.7-9.7,9.7c-5.4,0-9.9-4.3-9.9-9.7c0-4.8,3.4-8.8,7.9-9.7c0.6-0.1,1.3,0,2,0
		C193.9,129.6,198.2,133.8,198.2,139.3z"/>
	<rect x="179.1" y="154.8" class="st1" width="18.7" height="58"/>
	<path class="st1" d="M251.8,160c-3.3-4.2-7.9-6.3-13.7-6.3c-5.4,0-10,2.3-14.4,7l-0.9-5.9h-16.4v79.4l18.7-3.1v-18.5
		c2.8,0.9,5.7,1.4,8.3,1.4c4.6,0,11.2-1.3,16.4-7c5-5.5,7.7-13.9,7.7-25C257.4,172.2,255.5,164.8,251.8,160z M236.5,195.8
		c-1.5,2.8-3.9,4.3-6.5,4.3c-1.9,0-3.5-0.4-5-1.1v-27.5c3.1-3.3,5.9-3.6,7-3.6c4.7,0,7,4.9,7,14.9
		C238.9,188.3,238.2,192.8,236.5,195.8z"/>
	<path class="st1" d="M313.6,183.2c0-9.2-2.1-16.5-6.1-21.6c-4-5.2-9.9-7.9-17.5-7.9c-15.7,0-25.7,11.7-25.7,30.4
		c0,10.4,2.7,18.2,7.9,23.2c4.6,4.5,11.2,6.8,19.8,6.8c7.9,0,15.2-1.9,19.8-5l-2-12.6c-4.6,2.5-9.8,3.6-15.8,3.6
		c-3.6,0-6.1-0.7-7.9-2.2c-1.9-1.6-3-4.3-3.4-8.1h30.6C313.5,188.8,313.6,184.5,313.6,183.2z M282.6,178.4
		c0.5-7.2,2.3-11.3,5.6-12.1c0.5-0.1,0.8,0,1.3,0c4.2,0,6.5,3.9,6.8,12.1H282.6z"/>
</g>
</svg>
