<svg width="1728" height="500" viewBox="0 0 1728 500" fill="none" xmlns="http://www.w3.org/2000/svg">
<path d="M0 0L36.7524 11.1L73.518 0L110.283 11.1L147.049 0L183.801 11.1L220.567 0L257.332 11.1L294.098 0L330.864 11.1L367.629 0L404.381 11.1L441.147 0L477.913 11.1L514.691 0L551.457 11.1L588.222 0L624.988 11.1L661.753 0L698.519 11.1M698.519 11.1L735.297 0L772.063 11.1L808.828 0L845.594 11.1L882.36 0L919.138 11.1L955.904 0L992.682 11.1L1029.46 0L1066.24 11.1M698.519 11.1L661.761 0M698.519 11.1L735.279 0L772.044 11.1L808.81 0L845.562 11.1L882.327 0L919.093 11.1L955.859 0L992.624 11.1L1029.39 0L1066.14 11.1L1102.91 0L1139.67 11.1L1176.45 0L1213.22 11.1L1249.98 0L1286.75 11.1L1323.51 0L1360.28 11.1L1397.06 0L1433.82 11.1L1470.59 0L1507.35 11.1L1544.12 0L1580.9 11.1L1617.66 0L1654.44 11.1L1691.22 0L1728 11.1M0 88.9L36.7524 100L73.518 88.9L110.283 100L147.049 88.9L183.801 100L220.567 88.9L257.332 100L294.098 88.9L330.864 100L367.629 88.9L404.381 100L441.147 88.9L477.913 100L514.691 88.9L551.457 100L588.222 88.9L624.988 100L661.753 88.9L698.519 100M698.519 100L735.297 88.9L772.063 100L808.828 88.9L845.594 100L882.36 88.9L919.138 100L955.904 88.9L992.682 100L1029.46 88.9L1066.24 100M698.519 100L661.761 88.9M698.519 100L735.279 88.9L772.044 100L808.81 88.9L845.562 100L882.327 88.9L919.093 100L955.859 88.9L992.624 100L1029.39 88.9L1066.14 100L1102.91 88.9L1139.67 100L1176.45 88.9L1213.22 100L1249.98 88.9L1286.75 100L1323.51 88.9L1360.28 100L1397.06 88.9L1433.82 100L1470.59 88.9L1507.35 100L1544.12 88.9L1580.9 100L1617.66 88.9L1654.44 100L1691.22 88.9L1728 100M0 277.8L36.7524 288.9L73.518 277.8L110.283 288.9L147.049 277.8L183.801 288.9L220.567 277.8L257.332 288.9L294.098 277.8L330.864 288.9L367.629 277.8L404.381 288.9L441.147 277.8L477.913 288.9L514.691 277.8L551.457 288.9L588.222 277.8L624.988 288.9L661.753 277.8L698.519 288.9M698.519 288.9L735.297 277.8L772.063 288.9L808.828 277.8L845.594 288.9L882.36 277.8L919.138 288.9L955.904 277.8L992.682 288.9L1029.46 277.8L1066.24 288.9M698.519 288.9L661.761 277.8M698.519 288.9L735.279 277.8L772.044 288.9L808.81 277.8L845.562 288.9L882.327 277.8L919.093 288.9L955.859 277.8L992.624 288.9L1029.39 277.8L1066.14 288.9L1102.91 277.8L1139.67 288.9L1176.45 277.8L1213.22 288.9L1249.98 277.8L1286.75 288.9L1323.51 277.8L1360.28 288.9L1397.06 277.8L1433.82 288.9L1470.59 277.8L1507.35 288.9L1544.12 277.8L1580.9 288.9L1617.66 277.8L1654.44 288.9L1691.22 277.8L1728 288.9M0 177.8L36.7524 188.9L73.518 177.8L110.283 188.9L147.049 177.8L183.801 188.9L220.567 177.8L257.332 188.9L294.098 177.8L330.864 188.9L367.629 177.8L404.381 188.9L441.147 177.8L477.913 188.9L514.691 177.8L551.457 188.9L588.222 177.8L624.988 188.9L661.753 177.8L698.519 188.9M698.519 188.9L735.297 177.8L772.063 188.9L808.828 177.8L845.594 188.9L882.36 177.8L919.138 188.9L955.904 177.8L992.682 188.9L1029.46 177.8L1066.24 188.9M698.519 188.9L661.761 177.8M698.519 188.9L735.279 177.8L772.044 188.9L808.81 177.8L845.562 188.9L882.327 177.8L919.093 188.9L955.859 177.8L992.624 188.9L1029.39 177.8L1066.14 188.9L1102.91 177.8L1139.67 188.9L1176.45 177.8L1213.22 188.9L1249.98 177.8L1286.75 188.9L1323.51 177.8L1360.28 188.9L1397.06 177.8L1433.82 188.9L1470.59 177.8L1507.35 188.9L1544.12 177.8L1580.9 188.9L1617.66 177.8L1654.44 188.9L1691.22 177.8L1728 188.9M0 366.65L36.7524 377.8L73.518 366.65L110.283 377.8L147.049 366.65L183.801 377.8L220.567 366.65L257.332 377.8L294.098 366.65L330.864 377.8L367.629 366.65L404.381 377.8L441.147 366.65L477.913 377.8L514.691 366.65L551.457 377.8L588.222 366.65L624.988 377.8L661.753 366.65L698.519 377.8M698.519 377.8L735.297 366.65L772.063 377.8L808.828 366.65L845.594 377.8L882.36 366.65L919.138 377.8L955.904 366.65L992.682 377.8L1029.46 366.65L1066.24 377.8M698.519 377.8L661.761 366.65M698.519 377.8L735.279 366.65L772.044 377.8L808.81 366.65L845.562 377.8L882.327 366.65L919.093 377.8L955.859 366.65L992.624 377.8L1029.39 366.65L1066.14 377.8L1102.91 366.65L1139.67 377.8L1176.45 366.65L1213.22 377.8L1249.98 366.65L1286.75 377.8L1323.51 366.65L1360.28 377.8L1397.06 366.65L1433.82 377.8L1470.59 366.65L1507.35 377.8L1544.12 366.65L1580.9 377.8L1617.66 366.65L1654.44 377.8L1691.22 366.65L1728 377.8M0 44.4502L36.7524 55.5502L73.518 44.4502L110.283 55.5502L147.049 44.4502L183.801 55.5502L220.567 44.4502L257.332 55.5502L294.098 44.4502L330.864 55.5502L367.629 44.4502L404.381 55.5502L441.147 44.4502L477.913 55.5502L514.691 44.4502L551.457 55.5502L588.222 44.4502L624.988 55.5502L661.753 44.4502L698.519 55.5502M698.519 55.5502L735.297 44.4502L772.063 55.5502L808.828 44.4502L845.594 55.5502L882.36 44.4502L919.138 55.5502L955.904 44.4502L992.682 55.5502L1029.46 44.4502L1066.24 55.5502M698.519 55.5502L661.761 44.4502M698.519 55.5502L735.279 44.4502L772.044 55.5502L808.81 44.4502L845.562 55.5502L882.327 44.4502L919.093 55.5502L955.859 44.4502L992.624 55.5502L1029.39 44.4502L1066.14 55.5502L1102.91 44.4502L1139.67 55.5502L1176.45 44.4502L1213.22 55.5502L1249.98 44.4502L1286.75 55.5502L1323.51 44.4502L1360.28 55.5502L1397.06 44.4502L1433.82 55.5502L1470.59 44.4502L1507.35 55.5502L1544.12 44.4502L1580.9 55.5502L1617.66 44.4502L1654.44 55.5502L1691.22 44.4502L1728 55.5502M0 133.35L36.7524 144.45L73.518 133.35L110.283 144.45L147.049 133.35L183.801 144.45L220.567 133.35L257.332 144.45L294.098 133.35L330.864 144.45L367.629 133.35L404.381 144.45L441.147 133.35L477.913 144.45L514.691 133.35L551.457 144.45L588.222 133.35L624.988 144.45L661.753 133.35L698.519 144.45M698.519 144.45L735.297 133.35L772.063 144.45L808.828 133.35L845.594 144.45L882.36 133.35L919.138 144.45L955.904 133.35L992.682 144.45L1029.46 133.35L1066.24 144.45M698.519 144.45L661.761 133.35M698.519 144.45L735.279 133.35L772.044 144.45L808.81 133.35L845.562 144.45L882.327 133.35L919.093 144.45L955.859 133.35L992.624 144.45L1029.39 133.35L1066.14 144.45L1102.91 133.35L1139.67 144.45L1176.45 133.35L1213.22 144.45L1249.98 133.35L1286.75 144.45L1323.51 133.35L1360.28 144.45L1397.06 133.35L1433.82 144.45L1470.59 133.35L1507.35 144.45L1544.12 133.35L1580.9 144.45L1617.66 133.35L1654.44 144.45L1691.22 133.35L1728 144.45M0 322.2L36.7524 333.35L73.518 322.2L110.283 333.35L147.049 322.2L183.801 333.35L220.567 322.2L257.332 333.35L294.098 322.2L330.864 333.35L367.629 322.2L404.381 333.35L441.147 322.2L477.913 333.35L514.691 322.2L551.457 333.35L588.222 322.2L624.988 333.35L661.753 322.2L698.519 333.35M698.519 333.35L735.297 322.2L772.063 333.35L808.828 322.2L845.594 333.35L882.36 322.2L919.138 333.35L955.904 322.2L992.682 333.35L1029.46 322.2L1066.24 333.35M698.519 333.35L661.761 322.2M698.519 333.35L735.279 322.2L772.044 333.35L808.81 322.2L845.562 333.35L882.327 322.2L919.093 333.35L955.859 322.2L992.624 333.35L1029.39 322.2L1066.14 333.35L1102.91 322.2L1139.67 333.35L1176.45 322.2L1213.22 333.35L1249.98 322.2L1286.75 333.35L1323.51 322.2L1360.28 333.35L1397.06 322.2L1433.82 333.35L1470.59 322.2L1507.35 333.35L1544.12 322.2L1580.9 333.35L1617.66 322.2L1654.44 333.35L1691.22 322.2L1728 333.35M0 222.2L36.7524 233.35L73.518 222.2L110.283 233.35L147.049 222.2L183.801 233.35L220.567 222.2L257.332 233.35L294.098 222.2L330.864 233.35L367.629 222.2L404.381 233.35L441.147 222.2L477.913 233.35L514.691 222.2L551.457 233.35L588.222 222.2L624.988 233.35L661.753 222.2L698.519 233.35M698.519 233.35L735.297 222.2L772.063 233.35L808.828 222.2L845.594 233.35L882.36 222.2L919.138 233.35L955.904 222.2L992.682 233.35L1029.46 222.2L1066.24 233.35M698.519 233.35L661.761 222.2M698.519 233.35L735.279 222.2L772.044 233.35L808.81 222.2L845.562 233.35L882.327 222.2L919.093 233.35L955.859 222.2L992.624 233.35L1029.39 222.2L1066.14 233.35L1102.91 222.2L1139.67 233.35L1176.45 222.2L1213.22 233.35L1249.98 222.2L1286.75 233.35L1323.51 222.2L1360.28 233.35L1397.06 222.2L1433.82 233.35L1470.59 222.2L1507.35 233.35L1544.12 222.2L1580.9 233.35L1617.66 222.2L1654.44 233.35L1691.22 222.2L1728 233.35M0 411.1L36.7524 422.2L73.518 411.1L110.283 422.2L147.049 411.1L183.801 422.2L220.567 411.1L257.332 422.2L294.098 411.1L330.864 422.2L367.629 411.1L404.381 422.2L441.147 411.1L477.913 422.2L514.691 411.1L551.457 422.2L588.222 411.1L624.988 422.2L661.753 411.1L698.519 422.2M698.519 422.2L735.297 411.1L772.063 422.2L808.828 411.1L845.594 422.2L882.36 411.1L919.138 422.2L955.904 411.1L992.682 422.2L1029.46 411.1L1066.24 422.2M698.519 422.2L661.761 411.1M698.519 422.2L735.279 411.1L772.044 422.2L808.81 411.1L845.562 422.2L882.327 411.1L919.093 422.2L955.859 411.1L992.624 422.2L1029.39 411.1L1066.14 422.2L1102.91 411.1L1139.67 422.2L1176.45 411.1L1213.22 422.2L1249.98 411.1L1286.75 422.2L1323.51 411.1L1360.28 422.2L1397.06 411.1L1433.82 422.2L1470.59 411.1L1507.35 422.2L1544.12 411.1L1580.9 422.2L1617.66 411.1L1654.44 422.2L1691.22 411.1L1728 422.2M0 455.55L36.7524 466.65L73.518 455.55L110.283 466.65L147.049 455.55L183.801 466.65L220.567 455.55L257.332 466.65L294.098 455.55L330.864 466.65L367.629 455.55L404.381 466.65L441.147 455.55L477.913 466.65L514.691 455.55L551.457 466.65L588.222 455.55L624.988 466.65L661.753 455.55L698.519 466.65M698.519 466.65L735.297 455.55L772.063 466.65L808.828 455.55L845.594 466.65L882.36 455.55L919.138 466.65L955.904 455.55L992.682 466.65L1029.46 455.55L1066.24 466.65M698.519 466.65L661.761 455.55M698.519 466.65L735.279 455.55L772.044 466.65L808.81 455.55L845.562 466.65L882.327 455.55L919.093 466.65L955.859 455.55L992.624 466.65L1029.39 455.55L1066.14 466.65L1102.91 455.55L1139.67 466.65L1176.45 455.55L1213.22 466.65L1249.98 455.55L1286.75 466.65L1323.51 455.55L1360.28 466.65L1397.06 455.55L1433.82 466.65L1470.59 455.55L1507.35 466.65L1544.12 455.55L1580.9 466.65L1617.66 455.55L1654.44 466.65L1691.22 455.55L1728 466.65M0 22.2002L36.7524 33.3502L73.518 22.2002L110.283 33.3502L147.049 22.2002L183.801 33.3502L220.567 22.2002L257.332 33.3502L294.098 22.2002L330.864 33.3502L367.629 22.2002L404.381 33.3502L441.147 22.2002L477.913 33.3502L514.691 22.2002L551.457 33.3502L588.222 22.2002L624.988 33.3502L661.753 22.2002L698.519 33.3502M698.519 33.3502L735.297 22.2002L772.063 33.3502L808.828 22.2002L845.594 33.3502L882.36 22.2002L919.138 33.3502L955.904 22.2002L992.682 33.3502L1029.46 22.2002L1066.24 33.3502M698.519 33.3502L661.761 22.2002M698.519 33.3502L735.279 22.2002L772.044 33.3502L808.81 22.2002L845.562 33.3502L882.327 22.2002L919.093 33.3502L955.859 22.2002L992.624 33.3502L1029.39 22.2002L1066.14 33.3502L1102.91 22.2002L1139.67 33.3502L1176.45 22.2002L1213.22 33.3502L1249.98 22.2002L1286.75 33.3502L1323.51 22.2002L1360.28 33.3502L1397.06 22.2002L1433.82 33.3502L1470.59 22.2002L1507.35 33.3502L1544.12 22.2002L1580.9 33.3502L1617.66 22.2002L1654.44 33.3502L1691.22 22.2002L1728 33.3502M0 111.1L36.7524 122.2L73.518 111.1L110.283 122.2L147.049 111.1L183.801 122.2L220.567 111.1L257.332 122.2L294.098 111.1L330.864 122.2L367.629 111.1L404.381 122.2L441.147 111.1L477.913 122.2L514.691 111.1L551.457 122.2L588.222 111.1L624.988 122.2L661.753 111.1L698.519 122.2M698.519 122.2L735.297 111.1L772.063 122.2L808.828 111.1L845.594 122.2L882.36 111.1L919.138 122.2L955.904 111.1L992.682 122.2L1029.46 111.1L1066.24 122.2M698.519 122.2L661.761 111.1M698.519 122.2L735.279 111.1L772.044 122.2L808.81 111.1L845.562 122.2L882.327 111.1L919.093 122.2L955.859 111.1L992.624 122.2L1029.39 111.1L1066.14 122.2L1102.91 111.1L1139.67 122.2L1176.45 111.1L1213.22 122.2L1249.98 111.1L1286.75 122.2L1323.51 111.1L1360.28 122.2L1397.06 111.1L1433.82 122.2L1470.59 111.1L1507.35 122.2L1544.12 111.1L1580.9 122.2L1617.66 111.1L1654.44 122.2L1691.22 111.1L1728 122.2M0 300L36.7524 311.1L73.518 300L110.283 311.1L147.049 300L183.801 311.1L220.567 300L257.332 311.1L294.098 300L330.864 311.1L367.629 300L404.381 311.1L441.147 300L477.913 311.1L514.691 300L551.457 311.1L588.222 300L624.988 311.1L661.753 300L698.519 311.1M698.519 311.1L735.297 300L772.063 311.1L808.828 300L845.594 311.1L882.36 300L919.138 311.1L955.904 300L992.682 311.1L1029.46 300L1066.24 311.1M698.519 311.1L661.761 300M698.519 311.1L735.279 300L772.044 311.1L808.81 300L845.562 311.1L882.327 300L919.093 311.1L955.859 300L992.624 311.1L1029.39 300L1066.14 311.1L1102.91 300L1139.67 311.1L1176.45 300L1213.22 311.1L1249.98 300L1286.75 311.1L1323.51 300L1360.28 311.1L1397.06 300L1433.82 311.1L1470.59 300L1507.35 311.1L1544.12 300L1580.9 311.1L1617.66 300L1654.44 311.1L1691.22 300L1728 311.1M0 200L36.7524 211.1L73.518 200L110.283 211.1L147.049 200L183.801 211.1L220.567 200L257.332 211.1L294.098 200L330.864 211.1L367.629 200L404.381 211.1L441.147 200L477.913 211.1L514.691 200L551.457 211.1L588.222 200L624.988 211.1L661.753 200L698.519 211.1M698.519 211.1L735.297 200L772.063 211.1L808.828 200L845.594 211.1L882.36 200L919.138 211.1L955.904 200L992.682 211.1L1029.46 200L1066.24 211.1M698.519 211.1L661.761 200M698.519 211.1L735.279 200L772.044 211.1L808.81 200L845.562 211.1L882.327 200L919.093 211.1L955.859 200L992.624 211.1L1029.39 200L1066.14 211.1L1102.91 200L1139.67 211.1L1176.45 200L1213.22 211.1L1249.98 200L1286.75 211.1L1323.51 200L1360.28 211.1L1397.06 200L1433.82 211.1L1470.59 200L1507.35 211.1L1544.12 200L1580.9 211.1L1617.66 200L1654.44 211.1L1691.22 200L1728 211.1M0 388.9L36.7524 400L73.518 388.9L110.283 400L147.049 388.9L183.801 400L220.567 388.9L257.332 400L294.098 388.9L330.864 400L367.629 388.9L404.381 400L441.147 388.9L477.913 400L514.691 388.9L551.457 400L588.222 388.9L624.988 400L661.753 388.9L698.519 400M698.519 400L735.297 388.9L772.063 400L808.828 388.9L845.594 400L882.36 388.9L919.138 400L955.904 388.9L992.682 400L1029.46 388.9L1066.24 400M698.519 400L661.761 388.9M698.519 400L735.279 388.9L772.044 400L808.81 388.9L845.562 400L882.327 388.9L919.093 400L955.859 388.9L992.624 400L1029.39 388.9L1066.14 400L1102.91 388.9L1139.67 400L1176.45 388.9L1213.22 400L1249.98 388.9L1286.75 400L1323.51 388.9L1360.28 400L1397.06 388.9L1433.82 400L1470.59 388.9L1507.35 400L1544.12 388.9L1580.9 400L1617.66 388.9L1654.44 400L1691.22 388.9L1728 400M0 66.6502L36.7524 77.8002L73.518 66.6502L110.283 77.8002L147.049 66.6502L183.801 77.8002L220.567 66.6502L257.332 77.8002L294.098 66.6502L330.864 77.8002L367.629 66.6502L404.381 77.8002L441.147 66.6502L477.913 77.8002L514.691 66.6502L551.457 77.8002L588.222 66.6502L624.988 77.8002L661.753 66.6502L698.519 77.8002M698.519 77.8002L735.297 66.6502L772.063 77.8002L808.828 66.6502L845.594 77.8002L882.36 66.6502L919.138 77.8002L955.904 66.6502L992.682 77.8002L1029.46 66.6502L1066.24 77.8002M698.519 77.8002L661.761 66.6502M698.519 77.8002L735.279 66.6502L772.044 77.8002L808.81 66.6502L845.562 77.8002L882.327 66.6502L919.093 77.8002L955.859 66.6502L992.624 77.8002L1029.39 66.6502L1066.14 77.8002L1102.91 66.6502L1139.67 77.8002L1176.45 66.6502L1213.22 77.8002L1249.98 66.6502L1286.75 77.8002L1323.51 66.6502L1360.28 77.8002L1397.06 66.6502L1433.82 77.8002L1470.59 66.6502L1507.35 77.8002L1544.12 66.6502L1580.9 77.8002L1617.66 66.6502L1654.44 77.8002L1691.22 66.6502L1728 77.8002M0 155.55L36.7524 166.65L73.518 155.55L110.283 166.65L147.049 155.55L183.801 166.65L220.567 155.55L257.332 166.65L294.098 155.55L330.864 166.65L367.629 155.55L404.381 166.65L441.147 155.55L477.913 166.65L514.691 155.55L551.457 166.65L588.222 155.55L624.988 166.65L661.753 155.55L698.519 166.65M698.519 166.65L735.297 155.55L772.063 166.65L808.828 155.55L845.594 166.65L882.36 155.55L919.138 166.65L955.904 155.55L992.682 166.65L1029.46 155.55L1066.24 166.65M698.519 166.65L661.761 155.55M698.519 166.65L735.279 155.55L772.044 166.65L808.81 155.55L845.562 166.65L882.327 155.55L919.093 166.65L955.859 155.55L992.624 166.65L1029.39 155.55L1066.14 166.65L1102.91 155.55L1139.67 166.65L1176.45 155.55L1213.22 166.65L1249.98 155.55L1286.75 166.65L1323.51 155.55L1360.28 166.65L1397.06 155.55L1433.82 166.65L1470.59 155.55L1507.35 166.65L1544.12 155.55L1580.9 166.65L1617.66 155.55L1654.44 166.65L1691.22 155.55L1728 166.65M0 344.45L36.7524 355.55L73.518 344.45L110.283 355.55L147.049 344.45L183.801 355.55L220.567 344.45L257.332 355.55L294.098 344.45L330.864 355.55L367.629 344.45L404.381 355.55L441.147 344.45L477.913 355.55L514.691 344.45L551.457 355.55L588.222 344.45L624.988 355.55L661.753 344.45L698.519 355.55M698.519 355.55L735.297 344.45L772.063 355.55L808.828 344.45L845.594 355.55L882.36 344.45L919.138 355.55L955.904 344.45L992.682 355.55L1029.46 344.45L1066.24 355.55M698.519 355.55L661.761 344.45M698.519 355.55L735.279 344.45L772.044 355.55L808.81 344.45L845.562 355.55L882.327 344.45L919.093 355.55L955.859 344.45L992.624 355.55L1029.39 344.45L1066.14 355.55L1102.91 344.45L1139.67 355.55L1176.45 344.45L1213.22 355.55L1249.98 344.45L1286.75 355.55L1323.51 344.45L1360.28 355.55L1397.06 344.45L1433.82 355.55L1470.59 344.45L1507.35 355.55L1544.12 344.45L1580.9 355.55L1617.66 344.45L1654.44 355.55L1691.22 344.45L1728 355.55M0 244.45L36.7524 255.55L73.518 244.45L110.283 255.55L147.049 244.45L183.801 255.55L220.567 244.45L257.332 255.55L294.098 244.45L330.864 255.55L367.629 244.45L404.381 255.55L441.147 244.45L477.913 255.55L514.691 244.45L551.457 255.55L588.222 244.45L624.988 255.55L661.753 244.45L698.519 255.55M698.519 255.55L735.297 244.45L772.063 255.55L808.828 244.45L845.594 255.55L882.36 244.45L919.138 255.55L955.904 244.45L992.682 255.55L1029.46 244.45L1066.24 255.55M698.519 255.55L661.761 244.45M698.519 255.55L735.279 244.45L772.044 255.55L808.81 244.45L845.562 255.55L882.327 244.45L919.093 255.55L955.859 244.45L992.624 255.55L1029.39 244.45L1066.14 255.55L1102.91 244.45L1139.67 255.55L1176.45 244.45L1213.22 255.55L1249.98 244.45L1286.75 255.55L1323.51 244.45L1360.28 255.55L1397.06 244.45L1433.82 255.55L1470.59 244.45L1507.35 255.55L1544.12 244.45L1580.9 255.55L1617.66 244.45L1654.44 255.55L1691.22 244.45L1728 255.55M0 433.35L36.7524 444.45L73.518 433.35L110.283 444.45L147.049 433.35L183.801 444.45L220.567 433.35L257.332 444.45L294.098 433.35L330.864 444.45L367.629 433.35L404.381 444.45L441.147 433.35L477.913 444.45L514.691 433.35L551.457 444.45L588.222 433.35L624.988 444.45L661.753 433.35L698.519 444.45M698.519 444.45L735.297 433.35L772.063 444.45L808.828 433.35L845.594 444.45L882.36 433.35L919.138 444.45L955.904 433.35L992.682 444.45L1029.46 433.35L1066.24 444.45M698.519 444.45L661.761 433.35M698.519 444.45L735.279 433.35L772.044 444.45L808.81 433.35L845.562 444.45L882.327 433.35L919.093 444.45L955.859 433.35L992.624 444.45L1029.39 433.35L1066.14 444.45L1102.91 433.35L1139.67 444.45L1176.45 433.35L1213.22 444.45L1249.98 433.35L1286.75 444.45L1323.51 433.35L1360.28 444.45L1397.06 433.35L1433.82 444.45L1470.59 433.35L1507.35 444.45L1544.12 433.35L1580.9 444.45L1617.66 433.35L1654.44 444.45L1691.22 433.35L1728 444.45M0 477.8L36.7524 488.9L73.518 477.8L110.283 488.9L147.049 477.8L183.801 488.9L220.567 477.8L257.332 488.9L294.098 477.8L330.864 488.9L367.629 477.8L404.381 488.9L441.147 477.8L477.913 488.9L514.691 477.8L551.457 488.9L588.222 477.8L624.988 488.9L661.753 477.8L698.519 488.9M698.519 488.9L735.297 477.8L772.063 488.9L808.828 477.8L845.594 488.9L882.36 477.8L919.138 488.9L955.904 477.8L992.682 488.9L1029.46 477.8L1066.24 488.9M698.519 488.9L661.761 477.8M698.519 488.9L735.279 477.8L772.044 488.9L808.81 477.8L845.562 488.9L882.327 477.8L919.093 488.9L955.859 477.8L992.624 488.9L1029.39 477.8L1066.14 488.9L1102.91 477.8L1139.67 488.9L1176.45 477.8L1213.22 488.9L1249.98 477.8L1286.75 488.9L1323.51 477.8L1360.28 488.9L1397.06 477.8L1433.82 488.9L1470.59 477.8L1507.35 488.9L1544.12 477.8L1580.9 488.9L1617.66 477.8L1654.44 488.9L1691.22 477.8L1728 488.9M0 11.1002L36.7524 22.2002L73.518 11.1002L110.283 22.2002L147.049 11.1002L183.801 22.2002L220.567 11.1002L257.332 22.2002L294.098 11.1002L330.864 22.2002L367.629 11.1002L404.381 22.2002L441.147 11.1002L477.913 22.2002L514.691 11.1002L551.457 22.2002L588.222 11.1002L624.988 22.2002L661.753 11.1002L698.519 22.2002M698.519 22.2002L735.297 11.1002L772.063 22.2002L808.828 11.1002L845.594 22.2002L882.36 11.1002L919.138 22.2002L955.904 11.1002L992.682 22.2002L1029.46 11.1002L1066.24 22.2002M698.519 22.2002L661.761 11.1002M698.519 22.2002L735.279 11.1002L772.044 22.2002L808.81 11.1002L845.562 22.2002L882.327 11.1002L919.093 22.2002L955.859 11.1002L992.624 22.2002L1029.39 11.1002L1066.14 22.2002L1102.91 11.1002L1139.67 22.2002L1176.45 11.1002L1213.22 22.2002L1249.98 11.1002L1286.75 22.2002L1323.51 11.1002L1360.28 22.2002L1397.06 11.1002L1433.82 22.2002L1470.59 11.1002L1507.35 22.2002L1544.12 11.1002L1580.9 22.2002L1617.66 11.1002L1654.44 22.2002L1691.22 11.1002L1728 22.2002M0 100L36.7524 111.1L73.518 100L110.283 111.1L147.049 100L183.801 111.1L220.567 100L257.332 111.1L294.098 100L330.864 111.1L367.629 100L404.381 111.1L441.147 100L477.913 111.1L514.691 100L551.457 111.1L588.222 100L624.988 111.1L661.753 100L698.519 111.1M698.519 111.1L735.297 100L772.063 111.1L808.828 100L845.594 111.1L882.36 100L919.138 111.1L955.904 100L992.682 111.1L1029.46 100L1066.24 111.1M698.519 111.1L661.761 100M698.519 111.1L735.279 100L772.044 111.1L808.81 100L845.562 111.1L882.327 100L919.093 111.1L955.859 100L992.624 111.1L1029.39 100L1066.14 111.1L1102.91 100L1139.67 111.1L1176.45 100L1213.22 111.1L1249.98 100L1286.75 111.1L1323.51 100L1360.28 111.1L1397.06 100L1433.82 111.1L1470.59 100L1507.35 111.1L1544.12 100L1580.9 111.1L1617.66 100L1654.44 111.1L1691.22 100L1728 111.1M0 288.9L36.7524 300L73.518 288.9L110.283 300L147.049 288.9L183.801 300L220.567 288.9L257.332 300L294.098 288.9L330.864 300L367.629 288.9L404.381 300L441.147 288.9L477.913 300L514.691 288.9L551.457 300L588.222 288.9L624.988 300L661.753 288.9L698.519 300M698.519 300L735.297 288.9L772.063 300L808.828 288.9L845.594 300L882.36 288.9L919.138 300L955.904 288.9L992.682 300L1029.46 288.9L1066.24 300M698.519 300L661.761 288.9M698.519 300L735.279 288.9L772.044 300L808.81 288.9L845.562 300L882.327 288.9L919.093 300L955.859 288.9L992.624 300L1029.39 288.9L1066.14 300L1102.91 288.9L1139.67 300L1176.45 288.9L1213.22 300L1249.98 288.9L1286.75 300L1323.51 288.9L1360.28 300L1397.06 288.9L1433.82 300L1470.59 288.9L1507.35 300L1544.12 288.9L1580.9 300L1617.66 288.9L1654.44 300L1691.22 288.9L1728 300M0 188.9L36.7524 200L73.518 188.9L110.283 200L147.049 188.9L183.801 200L220.567 188.9L257.332 200L294.098 188.9L330.864 200L367.629 188.9L404.381 200L441.147 188.9L477.913 200L514.691 188.9L551.457 200L588.222 188.9L624.988 200L661.753 188.9L698.519 200M698.519 200L735.297 188.9L772.063 200L808.828 188.9L845.594 200L882.36 188.9L919.138 200L955.904 188.9L992.682 200L1029.46 188.9L1066.24 200M698.519 200L661.761 188.9M698.519 200L735.279 188.9L772.044 200L808.81 188.9L845.562 200L882.327 188.9L919.093 200L955.859 188.9L992.624 200L1029.39 188.9L1066.14 200L1102.91 188.9L1139.67 200L1176.45 188.9L1213.22 200L1249.98 188.9L1286.75 200L1323.51 188.9L1360.28 200L1397.06 188.9L1433.82 200L1470.59 188.9L1507.35 200L1544.12 188.9L1580.9 200L1617.66 188.9L1654.44 200L1691.22 188.9L1728 200M0 377.8L36.7524 388.9L73.518 377.8L110.283 388.9L147.049 377.8L183.801 388.9L220.567 377.8L257.332 388.9L294.098 377.8L330.864 388.9L367.629 377.8L404.381 388.9L441.147 377.8L477.913 388.9L514.691 377.8L551.457 388.9L588.222 377.8L624.988 388.9L661.753 377.8L698.519 388.9M698.519 388.9L735.297 377.8L772.063 388.9L808.828 377.8L845.594 388.9L882.36 377.8L919.138 388.9L955.904 377.8L992.682 388.9L1029.46 377.8L1066.24 388.9M698.519 388.9L661.761 377.8M698.519 388.9L735.279 377.8L772.044 388.9L808.81 377.8L845.562 388.9L882.327 377.8L919.093 388.9L955.859 377.8L992.624 388.9L1029.39 377.8L1066.14 388.9L1102.91 377.8L1139.67 388.9L1176.45 377.8L1213.22 388.9L1249.98 377.8L1286.75 388.9L1323.51 377.8L1360.28 388.9L1397.06 377.8L1433.82 388.9L1470.59 377.8L1507.35 388.9L1544.12 377.8L1580.9 388.9L1617.66 377.8L1654.44 388.9L1691.22 377.8L1728 388.9M0 55.5502L36.7524 66.6502L73.518 55.5502L110.283 66.6502L147.049 55.5502L183.801 66.6502L220.567 55.5502L257.332 66.6502L294.098 55.5502L330.864 66.6502L367.629 55.5502L404.381 66.6502L441.147 55.5502L477.913 66.6502L514.691 55.5502L551.457 66.6502L588.222 55.5502L624.988 66.6502L661.753 55.5502L698.519 66.6502M698.519 66.6502L735.297 55.5502L772.063 66.6502L808.828 55.5502L845.594 66.6502L882.36 55.5502L919.138 66.6502L955.904 55.5502L992.682 66.6502L1029.46 55.5502L1066.24 66.6502M698.519 66.6502L661.761 55.5502M698.519 66.6502L735.279 55.5502L772.044 66.6502L808.81 55.5502L845.562 66.6502L882.327 55.5502L919.093 66.6502L955.859 55.5502L992.624 66.6502L1029.39 55.5502L1066.14 66.6502L1102.91 55.5502L1139.67 66.6502L1176.45 55.5502L1213.22 66.6502L1249.98 55.5502L1286.75 66.6502L1323.51 55.5502L1360.28 66.6502L1397.06 55.5502L1433.82 66.6502L1470.59 55.5502L1507.35 66.6502L1544.12 55.5502L1580.9 66.6502L1617.66 55.5502L1654.44 66.6502L1691.22 55.5502L1728 66.6502M0 144.45L36.7524 155.55L73.518 144.45L110.283 155.55L147.049 144.45L183.801 155.55L220.567 144.45L257.332 155.55L294.098 144.45L330.864 155.55L367.629 144.45L404.381 155.55L441.147 144.45L477.913 155.55L514.691 144.45L551.457 155.55L588.222 144.45L624.988 155.55L661.753 144.45L698.519 155.55M698.519 155.55L735.297 144.45L772.063 155.55L808.828 144.45L845.594 155.55L882.36 144.45L919.138 155.55L955.904 144.45L992.682 155.55L1029.46 144.45L1066.24 155.55M698.519 155.55L661.761 144.45M698.519 155.55L735.279 144.45L772.044 155.55L808.81 144.45L845.562 155.55L882.327 144.45L919.093 155.55L955.859 144.45L992.624 155.55L1029.39 144.45L1066.14 155.55L1102.91 144.45L1139.67 155.55L1176.45 144.45L1213.22 155.55L1249.98 144.45L1286.75 155.55L1323.51 144.45L1360.28 155.55L1397.06 144.45L1433.82 155.55L1470.59 144.45L1507.35 155.55L1544.12 144.45L1580.9 155.55L1617.66 144.45L1654.44 155.55L1691.22 144.45L1728 155.55M0 333.35L36.7524 344.45L73.518 333.35L110.283 344.45L147.049 333.35L183.801 344.45L220.567 333.35L257.332 344.45L294.098 333.35L330.864 344.45L367.629 333.35L404.381 344.45L441.147 333.35L477.913 344.45L514.691 333.35L551.457 344.45L588.222 333.35L624.988 344.45L661.753 333.35L698.519 344.45M698.519 344.45L735.297 333.35L772.063 344.45L808.828 333.35L845.594 344.45L882.36 333.35L919.138 344.45L955.904 333.35L992.682 344.45L1029.46 333.35L1066.24 344.45M698.519 344.45L661.761 333.35M698.519 344.45L735.279 333.35L772.044 344.45L808.81 333.35L845.562 344.45L882.327 333.35L919.093 344.45L955.859 333.35L992.624 344.45L1029.39 333.35L1066.14 344.45L1102.91 333.35L1139.67 344.45L1176.45 333.35L1213.22 344.45L1249.98 333.35L1286.75 344.45L1323.51 333.35L1360.28 344.45L1397.06 333.35L1433.82 344.45L1470.59 333.35L1507.35 344.45L1544.12 333.35L1580.9 344.45L1617.66 333.35L1654.44 344.45L1691.22 333.35L1728 344.45M0 233.35L36.7524 244.45L73.518 233.35L110.283 244.45L147.049 233.35L183.801 244.45L220.567 233.35L257.332 244.45L294.098 233.35L330.864 244.45L367.629 233.35L404.381 244.45L441.147 233.35L477.913 244.45L514.691 233.35L551.457 244.45L588.222 233.35L624.988 244.45L661.753 233.35L698.519 244.45M698.519 244.45L735.297 233.35L772.063 244.45L808.828 233.35L845.594 244.45L882.36 233.35L919.138 244.45L955.904 233.35L992.682 244.45L1029.46 233.35L1066.24 244.45M698.519 244.45L661.761 233.35M698.519 244.45L735.279 233.35L772.044 244.45L808.81 233.35L845.562 244.45L882.327 233.35L919.093 244.45L955.859 233.35L992.624 244.45L1029.39 233.35L1066.14 244.45L1102.91 233.35L1139.67 244.45L1176.45 233.35L1213.22 244.45L1249.98 233.35L1286.75 244.45L1323.51 233.35L1360.28 244.45L1397.06 233.35L1433.82 244.45L1470.59 233.35L1507.35 244.45L1544.12 233.35L1580.9 244.45L1617.66 233.35L1654.44 244.45L1691.22 233.35L1728 244.45M0 422.2L36.7524 433.35L73.518 422.2L110.283 433.35L147.049 422.2L183.801 433.35L220.567 422.2L257.332 433.35L294.098 422.2L330.864 433.35L367.629 422.2L404.381 433.35L441.147 422.2L477.913 433.35L514.691 422.2L551.457 433.35L588.222 422.2L624.988 433.35L661.753 422.2L698.519 433.35M698.519 433.35L735.297 422.2L772.063 433.35L808.828 422.2L845.594 433.35L882.36 422.2L919.138 433.35L955.904 422.2L992.682 433.35L1029.46 422.2L1066.24 433.35M698.519 433.35L661.761 422.2M698.519 433.35L735.279 422.2L772.044 433.35L808.81 422.2L845.562 433.35L882.327 422.2L919.093 433.35L955.859 422.2L992.624 433.35L1029.39 422.2L1066.14 433.35L1102.91 422.2L1139.67 433.35L1176.45 422.2L1213.22 433.35L1249.98 422.2L1286.75 433.35L1323.51 422.2L1360.28 433.35L1397.06 422.2L1433.82 433.35L1470.59 422.2L1507.35 433.35L1544.12 422.2L1580.9 433.35L1617.66 422.2L1654.44 433.35L1691.22 422.2L1728 433.35M0 466.65L36.7524 477.8L73.518 466.65L110.283 477.8L147.049 466.65L183.801 477.8L220.567 466.65L257.332 477.8L294.098 466.65L330.864 477.8L367.629 466.65L404.381 477.8L441.147 466.65L477.913 477.8L514.691 466.65L551.457 477.8L588.222 466.65L624.988 477.8L661.753 466.65L698.519 477.8M698.519 477.8L735.297 466.65L772.063 477.8L808.828 466.65L845.594 477.8L882.36 466.65L919.138 477.8L955.904 466.65L992.682 477.8L1029.46 466.65L1066.24 477.8M698.519 477.8L661.761 466.65M698.519 477.8L735.279 466.65L772.044 477.8L808.81 466.65L845.562 477.8L882.327 466.65L919.093 477.8L955.859 466.65L992.624 477.8L1029.39 466.65L1066.14 477.8L1102.91 466.65L1139.67 477.8L1176.45 466.65L1213.22 477.8L1249.98 466.65L1286.75 477.8L1323.51 466.65L1360.28 477.8L1397.06 466.65L1433.82 477.8L1470.59 466.65L1507.35 477.8L1544.12 466.65L1580.9 477.8L1617.66 466.65L1654.44 477.8L1691.22 466.65L1728 477.8M0 33.3502L36.7524 44.4502L73.518 33.3502L110.283 44.4502L147.049 33.3502L183.801 44.4502L220.567 33.3502L257.332 44.4502L294.098 33.3502L330.864 44.4502L367.629 33.3502L404.381 44.4502L441.147 33.3502L477.913 44.4502L514.691 33.3502L551.457 44.4502L588.222 33.3502L624.988 44.4502L661.753 33.3502L698.519 44.4502M698.519 44.4502L735.297 33.3502L772.063 44.4502L808.828 33.3502L845.594 44.4502L882.36 33.3502L919.138 44.4502L955.904 33.3502L992.682 44.4502L1029.46 33.3502L1066.24 44.4502M698.519 44.4502L661.761 33.3502M698.519 44.4502L735.279 33.3502L772.044 44.4502L808.81 33.3502L845.562 44.4502L882.327 33.3502L919.093 44.4502L955.859 33.3502L992.624 44.4502L1029.39 33.3502L1066.14 44.4502L1102.91 33.3502L1139.67 44.4502L1176.45 33.3502L1213.22 44.4502L1249.98 33.3502L1286.75 44.4502L1323.51 33.3502L1360.28 44.4502L1397.06 33.3502L1433.82 44.4502L1470.59 33.3502L1507.35 44.4502L1544.12 33.3502L1580.9 44.4502L1617.66 33.3502L1654.44 44.4502L1691.22 33.3502L1728 44.4502M0 122.2L36.7524 133.35L73.518 122.2L110.283 133.35L147.049 122.2L183.801 133.35L220.567 122.2L257.332 133.35L294.098 122.2L330.864 133.35L367.629 122.2L404.381 133.35L441.147 122.2L477.913 133.35L514.691 122.2L551.457 133.35L588.222 122.2L624.988 133.35L661.753 122.2L698.519 133.35M698.519 133.35L735.297 122.2L772.063 133.35L808.828 122.2L845.594 133.35L882.36 122.2L919.138 133.35L955.904 122.2L992.682 133.35L1029.46 122.2L1066.24 133.35M698.519 133.35L661.761 122.2M698.519 133.35L735.279 122.2L772.044 133.35L808.81 122.2L845.562 133.35L882.327 122.2L919.093 133.35L955.859 122.2L992.624 133.35L1029.39 122.2L1066.14 133.35L1102.91 122.2L1139.67 133.35L1176.45 122.2L1213.22 133.35L1249.98 122.2L1286.75 133.35L1323.51 122.2L1360.28 133.35L1397.06 122.2L1433.82 133.35L1470.59 122.2L1507.35 133.35L1544.12 122.2L1580.9 133.35L1617.66 122.2L1654.44 133.35L1691.22 122.2L1728 133.35M0 311.1L36.7524 322.2L73.518 311.1L110.283 322.2L147.049 311.1L183.801 322.2L220.567 311.1L257.332 322.2L294.098 311.1L330.864 322.2L367.629 311.1L404.381 322.2L441.147 311.1L477.913 322.2L514.691 311.1L551.457 322.2L588.222 311.1L624.988 322.2L661.753 311.1L698.519 322.2M698.519 322.2L735.297 311.1L772.063 322.2L808.828 311.1L845.594 322.2L882.36 311.1L919.138 322.2L955.904 311.1L992.682 322.2L1029.46 311.1L1066.24 322.2M698.519 322.2L661.761 311.1M698.519 322.2L735.279 311.1L772.044 322.2L808.81 311.1L845.562 322.2L882.327 311.1L919.093 322.2L955.859 311.1L992.624 322.2L1029.39 311.1L1066.14 322.2L1102.91 311.1L1139.67 322.2L1176.45 311.1L1213.22 322.2L1249.98 311.1L1286.75 322.2L1323.51 311.1L1360.28 322.2L1397.06 311.1L1433.82 322.2L1470.59 311.1L1507.35 322.2L1544.12 311.1L1580.9 322.2L1617.66 311.1L1654.44 322.2L1691.22 311.1L1728 322.2M0 211.1L36.7524 222.2L73.518 211.1L110.283 222.2L147.049 211.1L183.801 222.2L220.567 211.1L257.332 222.2L294.098 211.1L330.864 222.2L367.629 211.1L404.381 222.2L441.147 211.1L477.913 222.2L514.691 211.1L551.457 222.2L588.222 211.1L624.988 222.2L661.753 211.1L698.519 222.2M698.519 222.2L735.297 211.1L772.063 222.2L808.828 211.1L845.594 222.2L882.36 211.1L919.138 222.2L955.904 211.1L992.682 222.2L1029.46 211.1L1066.24 222.2M698.519 222.2L661.761 211.1M698.519 222.2L735.279 211.1L772.044 222.2L808.81 211.1L845.562 222.2L882.327 211.1L919.093 222.2L955.859 211.1L992.624 222.2L1029.39 211.1L1066.14 222.2L1102.91 211.1L1139.67 222.2L1176.45 211.1L1213.22 222.2L1249.98 211.1L1286.75 222.2L1323.51 211.1L1360.28 222.2L1397.06 211.1L1433.82 222.2L1470.59 211.1L1507.35 222.2L1544.12 211.1L1580.9 222.2L1617.66 211.1L1654.44 222.2L1691.22 211.1L1728 222.2M0 400L36.7524 411.1L73.518 400L110.283 411.1L147.049 400L183.801 411.1L220.567 400L257.332 411.1L294.098 400L330.864 411.1L367.629 400L404.381 411.1L441.147 400L477.913 411.1L514.691 400L551.457 411.1L588.222 400L624.988 411.1L661.753 400L698.519 411.1M698.519 411.1L735.297 400L772.063 411.1L808.828 400L845.594 411.1L882.36 400L919.138 411.1L955.904 400L992.682 411.1L1029.46 400L1066.24 411.1M698.519 411.1L661.761 400M698.519 411.1L735.279 400L772.044 411.1L808.81 400L845.562 411.1L882.327 400L919.093 411.1L955.859 400L992.624 411.1L1029.39 400L1066.14 411.1L1102.91 400L1139.67 411.1L1176.45 400L1213.22 411.1L1249.98 400L1286.75 411.1L1323.51 400L1360.28 411.1L1397.06 400L1433.82 411.1L1470.59 400L1507.35 411.1L1544.12 400L1580.9 411.1L1617.66 400L1654.44 411.1L1691.22 400L1728 411.1M0 77.8L36.7524 88.9L73.518 77.8L110.283 88.9L147.049 77.8L183.801 88.9L220.567 77.8L257.332 88.9L294.098 77.8L330.864 88.9L367.629 77.8L404.381 88.9L441.147 77.8L477.913 88.9L514.691 77.8L551.457 88.9L588.222 77.8L624.988 88.9L661.753 77.8L698.519 88.9M698.519 88.9L735.297 77.8L772.063 88.9L808.828 77.8L845.594 88.9L882.36 77.8L919.138 88.9L955.904 77.8L992.682 88.9L1029.46 77.8L1066.24 88.9M698.519 88.9L661.761 77.8M698.519 88.9L735.279 77.8L772.044 88.9L808.81 77.8L845.562 88.9L882.327 77.8L919.093 88.9L955.859 77.8L992.624 88.9L1029.39 77.8L1066.14 88.9L1102.91 77.8L1139.67 88.9L1176.45 77.8L1213.22 88.9L1249.98 77.8L1286.75 88.9L1323.51 77.8L1360.28 88.9L1397.06 77.8L1433.82 88.9L1470.59 77.8L1507.35 88.9L1544.12 77.8L1580.9 88.9L1617.66 77.8L1654.44 88.9L1691.22 77.8L1728 88.9M0 266.65L36.7524 277.8L73.518 266.65L110.283 277.8L147.049 266.65L183.801 277.8L220.567 266.65L257.332 277.8L294.098 266.65L330.864 277.8L367.629 266.65L404.381 277.8L441.147 266.65L477.913 277.8L514.691 266.65L551.457 277.8L588.222 266.65L624.988 277.8L661.753 266.65L698.519 277.8M698.519 277.8L735.297 266.65L772.063 277.8L808.828 266.65L845.594 277.8L882.36 266.65L919.138 277.8L955.904 266.65L992.682 277.8L1029.46 266.65L1066.24 277.8M698.519 277.8L661.761 266.65M698.519 277.8L735.279 266.65L772.044 277.8L808.81 266.65L845.562 277.8L882.327 266.65L919.093 277.8L955.859 266.65L992.624 277.8L1029.39 266.65L1066.14 277.8L1102.91 266.65L1139.67 277.8L1176.45 266.65L1213.22 277.8L1249.98 266.65L1286.75 277.8L1323.51 266.65L1360.28 277.8L1397.06 266.65L1433.82 277.8L1470.59 266.65L1507.35 277.8L1544.12 266.65L1580.9 277.8L1617.66 266.65L1654.44 277.8L1691.22 266.65L1728 277.8M0 166.65L36.7524 177.8L73.518 166.65L110.283 177.8L147.049 166.65L183.801 177.8L220.567 166.65L257.332 177.8L294.098 166.65L330.864 177.8L367.629 166.65L404.381 177.8L441.147 166.65L477.913 177.8L514.691 166.65L551.457 177.8L588.222 166.65L624.988 177.8L661.753 166.65L698.519 177.8M698.519 177.8L735.297 166.65L772.063 177.8L808.828 166.65L845.594 177.8L882.36 166.65L919.138 177.8L955.904 166.65L992.682 177.8L1029.46 166.65L1066.24 177.8M698.519 177.8L661.761 166.65M698.519 177.8L735.279 166.65L772.044 177.8L808.81 166.65L845.562 177.8L882.327 166.65L919.093 177.8L955.859 166.65L992.624 177.8L1029.39 166.65L1066.14 177.8L1102.91 166.65L1139.67 177.8L1176.45 166.65L1213.22 177.8L1249.98 166.65L1286.75 177.8L1323.51 166.65L1360.28 177.8L1397.06 166.65L1433.82 177.8L1470.59 166.65L1507.35 177.8L1544.12 166.65L1580.9 177.8L1617.66 166.65L1654.44 177.8L1691.22 166.65L1728 177.8M0 355.55L36.7524 366.65L73.518 355.55L110.283 366.65L147.049 355.55L183.801 366.65L220.567 355.55L257.332 366.65L294.098 355.55L330.864 366.65L367.629 355.55L404.381 366.65L441.147 355.55L477.913 366.65L514.691 355.55L551.457 366.65L588.222 355.55L624.988 366.65L661.753 355.55L698.519 366.65M698.519 366.65L735.297 355.55L772.063 366.65L808.828 355.55L845.594 366.65L882.36 355.55L919.138 366.65L955.904 355.55L992.682 366.65L1029.46 355.55L1066.24 366.65M698.519 366.65L661.761 355.55M698.519 366.65L735.279 355.55L772.044 366.65L808.81 355.55L845.562 366.65L882.327 355.55L919.093 366.65L955.859 355.55L992.624 366.65L1029.39 355.55L1066.14 366.65L1102.91 355.55L1139.67 366.65L1176.45 355.55L1213.22 366.65L1249.98 355.55L1286.75 366.65L1323.51 355.55L1360.28 366.65L1397.06 355.55L1433.82 366.65L1470.59 355.55L1507.35 366.65L1544.12 355.55L1580.9 366.65L1617.66 355.55L1654.44 366.65L1691.22 355.55L1728 366.65M0 255.55L36.7524 266.65L73.518 255.55L110.283 266.65L147.049 255.55L183.801 266.65L220.567 255.55L257.332 266.65L294.098 255.55L330.864 266.65L367.629 255.55L404.381 266.65L441.147 255.55L477.913 266.65L514.691 255.55L551.457 266.65L588.222 255.55L624.988 266.65L661.753 255.55L698.519 266.65M698.519 266.65L735.297 255.55L772.063 266.65L808.828 255.55L845.594 266.65L882.36 255.55L919.138 266.65L955.904 255.55L992.682 266.65L1029.46 255.55L1066.24 266.65M698.519 266.65L661.761 255.55M698.519 266.65L735.279 255.55L772.044 266.65L808.81 255.55L845.562 266.65L882.327 255.55L919.093 266.65L955.859 255.55L992.624 266.65L1029.39 255.55L1066.14 266.65L1102.91 255.55L1139.67 266.65L1176.45 255.55L1213.22 266.65L1249.98 255.55L1286.75 266.65L1323.51 255.55L1360.28 266.65L1397.06 255.55L1433.82 266.65L1470.59 255.55L1507.35 266.65L1544.12 255.55L1580.9 266.65L1617.66 255.55L1654.44 266.65L1691.22 255.55L1728 266.65M0 444.45L36.7524 455.55L73.518 444.45L110.283 455.55L147.049 444.45L183.801 455.55L220.567 444.45L257.332 455.55L294.098 444.45L330.864 455.55L367.629 444.45L404.381 455.55L441.147 444.45L477.913 455.55L514.691 444.45L551.457 455.55L588.222 444.45L624.988 455.55L661.753 444.45L698.519 455.55M698.519 455.55L735.297 444.45L772.063 455.55L808.828 444.45L845.594 455.55L882.36 444.45L919.138 455.55L955.904 444.45L992.682 455.55L1029.46 444.45L1066.24 455.55M698.519 455.55L661.761 444.45M698.519 455.55L735.279 444.45L772.044 455.55L808.81 444.45L845.562 455.55L882.327 444.45L919.093 455.55L955.859 444.45L992.624 455.55L1029.39 444.45L1066.14 455.55L1102.91 444.45L1139.67 455.55L1176.45 444.45L1213.22 455.55L1249.98 444.45L1286.75 455.55L1323.51 444.45L1360.28 455.55L1397.06 444.45L1433.82 455.55L1470.59 444.45L1507.35 455.55L1544.12 444.45L1580.9 455.55L1617.66 444.45L1654.44 455.55L1691.22 444.45L1728 455.55M0 488.9L36.7524 500L73.518 488.9L110.283 500L147.049 488.9L183.801 500L220.567 488.9L257.332 500L294.098 488.9L330.864 500L367.629 488.9L404.381 500L441.147 488.9L477.913 500L514.691 488.9L551.457 500L588.222 488.9L624.988 500L661.753 488.9L698.519 500M698.519 500L735.297 488.9L772.063 500L808.828 488.9L845.594 500L882.36 488.9L919.138 500L955.904 488.9L992.682 500L1029.46 488.9L1066.24 500M698.519 500L661.761 488.9M698.519 500L735.279 488.9L772.044 500L808.81 488.9L845.562 500L882.327 488.9L919.093 500L955.859 488.9L992.624 500L1029.39 488.9L1066.14 500L1102.91 488.9L1139.67 500L1176.45 488.9L1213.22 500L1249.98 488.9L1286.75 500L1323.51 488.9L1360.28 500L1397.06 488.9L1433.82 500L1470.59 488.9L1507.35 500L1544.12 488.9L1580.9 500L1617.66 488.9L1654.44 500L1691.22 488.9L1728 500" stroke="#DCEFDD" stroke-width="5" stroke-miterlimit="10" stroke-linecap="round"/>
</svg>
